<?xml version="1.0" standalone="no"?>
<!DOCTYPE svg PUBLIC "-//W3C//DTD SVG 20010904//EN"
 "http://www.w3.org/TR/2001/REC-SVG-20010904/DTD/svg10.dtd">
<svg version="1.0" xmlns="http://www.w3.org/2000/svg"
 width="1024.000000pt" height="1024.000000pt" viewBox="0 0 1024.000000 1024.000000"
 preserveAspectRatio="xMidYMid meet">

<g transform="translate(0.000000,1024.000000) scale(0.100000,-0.100000)"
fill="#0369a1" stroke="none">
<path d="M4610 9636 c0 -7 7 -19 15 -26 8 -7 15 -19 15 -27 0 -7 -7 -16 -15
-19 -18 -7 -20 -44 -3 -44 6 0 22 9 34 21 l22 21 11 -21 c13 -23 36 -28 46
-10 4 5 0 18 -9 28 -20 22 -20 35 -1 51 19 16 19 29 -1 37 -11 4 -23 -2 -34
-17 l-18 -23 -11 21 c-13 24 -51 30 -51 8z"/>
<path d="M5090 9632 c-31 -25 -33 -93 -4 -123 32 -31 92 -29 121 6 67 77 -38
181 -117 117z m80 -62 c0 -16 -6 -30 -12 -33 -24 -8 -38 5 -38 33 0 16 6 30
13 33 23 8 37 -5 37 -33z"/>
<path d="M6008 9574 c-16 -34 0 -58 40 -62 42 -4 61 28 37 64 -21 33 -62 32
-77 -2z"/>
<path d="M6726 9584 c-19 -18 -20 -28 -6 -55 13 -24 42 -25 63 -1 22 24 21 35
-1 55 -23 21 -36 21 -56 1z"/>
<path d="M6370 9538 c0 -60 11 -84 34 -75 12 5 16 21 16 67 0 57 -1 60 -25 60
-24 0 -25 -3 -25 -52z"/>
<path d="M3895 9551 c-16 -5 -76 -9 -132 -10 l-103 -1 0 -34 c0 -19 11 -70 24
-113 55 -176 59 -200 39 -251 -27 -71 -23 -164 11 -230 15 -29 43 -71 63 -93
33 -37 38 -48 41 -105 2 -35 8 -64 13 -64 4 0 16 -16 25 -36 28 -59 76 -88
153 -92 61 -3 69 -1 109 27 23 18 47 44 53 59 5 15 17 32 25 39 10 7 17 32 19
69 3 39 10 66 25 83 110 137 132 220 92 349 l-19 59 28 79 c15 43 37 105 49
138 11 32 20 70 18 85 -3 25 -6 26 -88 33 -156 12 -415 17 -445 9z m256 -30
c30 -5 94 -13 142 -16 l88 -7 -15 -24 c-9 -13 -16 -31 -17 -41 0 -14 -2 -15
-6 -3 -10 26 -26 30 -83 24 -70 -8 -99 -24 -144 -76 -29 -33 -36 -50 -36 -83
0 -83 79 -151 173 -149 46 0 47 -1 57 -35 14 -51 12 -106 -5 -147 -18 -43 -96
-153 -109 -154 -5 0 -6 36 -3 80 4 71 3 81 -13 90 -34 18 -40 11 -40 -49 0
-32 -3 -79 -6 -105 l-7 -46 -93 0 -92 0 -7 66 c-4 36 -5 83 -2 105 4 32 2 39
-11 39 -39 -1 -45 -15 -40 -94 3 -42 2 -79 -3 -81 -4 -3 -28 20 -53 51 -55 67
-80 142 -71 208 8 53 25 69 120 120 91 49 125 81 125 119 0 37 -25 80 -60 101
-58 34 -168 7 -181 -44 -6 -23 -7 -24 -14 -5 -28 71 -45 117 -45 124 0 5 44
11 98 15 53 3 120 10 147 15 70 12 142 13 206 2z m159 -170 c-23 -45 -26 -47
-54 -26 -32 24 -106 17 -106 -9 0 -7 28 -23 63 -37 68 -26 83 -51 49 -83 -19
-16 -23 -16 -58 -1 -82 34 -101 80 -60 149 35 60 85 90 137 83 25 -3 40 -1 40
6 1 7 4 0 6 -15 2 -15 -5 -45 -17 -67z m-378 22 c29 -26 23 -68 -14 -96 -37
-27 -112 -67 -127 -67 -15 0 -27 73 -12 78 6 2 11 14 11 26 0 13 9 35 21 50
16 20 29 26 61 26 25 0 49 -7 60 -17z m145 -654 c91 1 119 -13 45 -24 -64 -8
-220 -10 -228 -2 -4 3 -4 14 0 23 5 13 14 15 54 9 26 -4 84 -7 129 -6z m-27
-89 c64 2 80 -1 45 -10 -16 -4 -60 -8 -97 -9 -53 -1 -68 2 -68 13 0 19 20 25
50 14 13 -5 45 -9 70 -8z"/>
<path d="M3990 8976 c0 -35 32 -51 68 -34 34 17 43 58 13 58 -12 0 -21 -5 -21
-11 0 -6 -7 -8 -15 -5 -8 3 -22 9 -30 12 -11 5 -15 -1 -15 -20z"/>
<path d="M5747 9554 c-4 -4 -7 -27 -7 -50 l0 -43 -42 -3 c-31 -2 -44 -8 -46
-20 -3 -14 6 -17 45 -20 43 -3 48 -5 49 -28 1 -53 4 -60 24 -60 17 0 20 7 20
44 l0 45 48 3 c34 2 47 7 47 18 0 11 -13 16 -47 18 l-47 3 -3 47 c-2 33 -8 48
-18 50 -9 1 -19 0 -23 -4z"/>
<path d="M5045 9405 c-153 -29 -271 -91 -381 -200 -96 -96 -145 -175 -191
-313 -31 -94 -34 -114 -35 -220 0 -233 74 -408 238 -561 181 -170 435 -228
702 -160 118 30 205 81 303 179 98 97 150 182 188 305 21 69 25 99 24 220 0
222 -42 339 -179 499 -34 39 -82 86 -108 105 -25 19 -46 40 -46 45 0 16 -221
95 -298 106 -86 12 -130 11 -217 -5z m270 -59 c91 -24 154 -56 148 -74 -11
-30 -25 -43 -37 -33 -25 19 -137 50 -207 57 -257 23 -499 -124 -600 -365 -105
-251 -61 -514 115 -693 102 -103 203 -153 366 -184 36 -6 54 -12 40 -13 -42
-2 -1 -21 46 -21 23 0 63 -3 90 -7 75 -10 22 -21 -111 -22 -131 -1 -192 12
-313 70 -70 34 -101 57 -167 123 -136 137 -195 284 -195 480 0 128 19 207 76
325 136 279 461 434 749 357z m261 -136 c28 -21 62 -54 75 -72 l22 -33 -32 30
c-21 19 -30 24 -26 12 6 -14 3 -16 -11 -10 -16 6 -17 5 -4 -9 8 -8 21 -15 29
-14 7 1 15 -5 17 -12 1 -7 0 -8 -3 -2 -2 5 -9 10 -15 10 -6 0 -2 -12 8 -27 11
-18 -3 -9 -41 26 -33 29 -69 58 -82 64 -13 6 -23 14 -23 18 0 12 22 59 28 59
3 0 29 -18 58 -40z m-716 -64 c0 -2 -8 -10 -17 -17 -16 -13 -17 -12 -4 4 13
16 21 21 21 13z m633 -29 c16 -11 8 -25 -85 -153 -164 -223 -199 -265 -216
-262 -8 2 -17 8 -19 13 -4 12 284 413 298 414 3 1 13 -5 22 -12z m-773 -143
c0 -8 -5 -12 -10 -9 -6 4 -8 11 -5 16 9 14 15 11 15 -7z m830 -47 c0 -2 -9
-15 -20 -27 -22 -25 -22 -57 -2 -52 8 1 7 -6 -4 -23 -15 -23 -15 -25 0 -25 10
0 14 5 11 10 -4 6 5 10 19 10 20 0 26 -5 26 -21 0 -12 4 -17 11 -13 6 3 8 17
4 31 -3 14 -2 22 3 19 18 -11 22 -54 7 -82 -8 -16 -15 -25 -15 -21 0 5 -6 2
-14 -5 -19 -20 -32 -153 -15 -163 8 -5 10 -4 5 4 -4 7 -5 19 -2 28 5 11 10 13
20 4 7 -6 17 -7 22 -3 5 4 -2 -5 -15 -20 -24 -28 -51 -37 -51 -18 0 5 -7 7
-15 4 -8 -4 -15 -1 -15 6 0 6 5 8 10 5 6 -3 13 1 17 10 9 24 -19 39 -34 18
-11 -14 -14 -13 -25 11 -7 17 -18 26 -28 23 -13 -3 -15 2 -11 27 4 26 6 27 9
9 3 -20 9 -23 48 -23 43 0 44 0 44 34 0 19 -6 37 -12 40 -10 5 -10 7 0 12 6 3
12 13 12 22 0 14 -10 17 -56 17 l-55 0 5 -29 c5 -25 3 -28 -14 -23 -11 3 -18
1 -14 -4 3 -5 2 -14 -2 -20 -4 -8 -9 -7 -15 2 -7 11 -9 11 -9 -2 0 -20 -27
-33 -33 -16 -3 9 -9 8 -23 -2 -10 -8 11 15 49 50 37 36 67 71 67 78 0 11 3 11
15 1 9 -7 18 -10 22 -6 3 3 1 6 -5 6 -7 0 -12 7 -12 15 0 8 4 15 10 15 5 0 16
13 25 29 18 36 55 74 55 58z m-832 -31 c20 -14 174 -99 342 -190 168 -91 298
-166 290 -165 -8 0 -34 4 -57 8 -51 10 -217 -16 -307 -48 -65 -23 -193 -91
-242 -128 -17 -12 -33 -23 -36 -23 -12 0 -70 144 -83 206 -18 86 -18 141 -1
225 15 67 41 139 51 139 3 0 22 -11 43 -24z m926 -85 c9 -39 15 -94 15 -123
-1 -31 -4 -40 -6 -23 -5 42 -34 186 -40 202 -3 7 -1 13 5 13 6 0 18 -31 26
-69z m-10 -83 c9 -37 6 -44 -9 -24 -14 19 -15 19 -15 1 0 -10 -2 -16 -5 -13
-8 8 5 58 15 58 4 0 10 -10 14 -22z m-23 -111 c-8 -8 -11 -3 -11 19 1 25 2 27
11 11 8 -14 8 -22 0 -30z m-265 18 c16 -8 22 -15 14 -15 -18 1 -70 29 -54 30
7 0 25 -7 40 -15z m49 -25 c3 -5 1 -10 -4 -10 -6 0 -11 5 -11 10 0 6 2 10 4
10 3 0 8 -4 11 -10z m234 -61 c-8 -4 -16 -5 -19 -2 -3 3 1 8 8 10 6 3 13 14
13 26 2 20 2 20 6 -2 3 -13 -1 -27 -8 -32z m-21 -52 c6 3 12 0 12 -6 0 -17
-36 -13 -51 6 -13 15 -12 15 6 6 11 -6 26 -8 33 -6z m-246 -7 c60 -11 151 -45
186 -70 l22 -15 -20 -43 c-46 -101 -178 -199 -299 -222 -182 -34 -357 14 -470
129 l-54 55 24 19 c42 35 221 116 299 136 84 22 224 27 312 11z m258 -295 c0
-1 -6 -7 -13 -13 -10 -8 -13 -6 -13 7 0 11 6 17 13 14 7 -3 13 -6 13 -8z m-45
-45 c-3 -5 -12 -10 -18 -10 -7 0 -6 4 3 10 19 12 23 12 15 0z"/>
<path d="M5490 8830 c0 -5 5 -10 10 -10 6 0 10 5 10 10 0 6 -4 10 -10 10 -5 0
-10 -4 -10 -10z"/>
<path d="M6285 9400 c-106 -34 -211 -133 -237 -223 -6 -23 -12 -74 -11 -113 1
-85 18 -128 94 -239 52 -76 53 -79 60 -174 5 -53 8 -113 9 -133 0 -26 5 -38
14 -38 8 0 18 -10 22 -22 16 -54 87 -98 157 -98 64 0 124 36 169 101 38 53 38
55 38 151 0 113 4 124 70 225 60 92 80 153 80 250 0 111 -42 193 -132 259 -96
71 -219 90 -333 54z m248 -59 c39 -18 120 -96 123 -119 0 -4 8 -24 17 -44 18
-39 23 -78 6 -43 -8 17 -8 16 -3 -5 18 -70 -22 -178 -101 -275 -36 -43 -46
-67 -20 -45 19 16 19 0 0 -26 -8 -10 -15 -28 -16 -39 -1 -11 -5 -2 -8 20 -6
34 -8 26 -15 -52 -7 -82 -10 -93 -27 -93 -18 0 -19 8 -19 128 0 70 -3 136 -6
148 -5 18 0 22 27 28 46 9 69 33 69 73 0 67 -60 92 -133 53 -37 -20 -37 -20
-69 0 -88 54 -178 -15 -128 -98 15 -24 27 -32 49 -32 16 0 31 -4 33 -10 2 -5
2 -73 0 -150 l-3 -140 -28 0 c-27 0 -29 2 -35 62 -8 68 -23 101 -90 201 -53
78 -70 130 -69 207 1 69 22 119 75 177 45 48 94 77 155 93 56 14 165 4 216
-19z m-229 -317 c9 -4 16 -18 16 -33 0 -34 -6 -40 -31 -34 -13 4 -19 14 -19
32 0 38 7 45 34 35z m213 -20 c5 -15 -31 -63 -41 -53 -5 5 -9 29 -7 52 1 22
39 23 48 1z m-97 -194 l0 -190 -30 0 c-29 0 -30 1 -30 48 0 26 3 111 7 190 6
140 6 142 30 142 l23 0 0 -190z m-20 -259 c46 -6 51 -9 30 -15 -14 -4 -61 -8
-105 -9 -68 -2 -80 0 -83 16 -3 15 4 17 50 16 29 -1 78 -4 108 -8z m-21 -90
c12 -7 6 -11 -23 -17 -40 -7 -66 2 -74 26 -4 10 5 11 38 6 24 -4 50 -11 59
-15z"/>
<path d="M3408 9371 c-45 -45 -43 -77 10 -121 45 -37 53 -37 80 0 14 18 28 27
37 24 12 -5 15 2 15 29 0 28 -6 40 -26 54 -14 10 -34 26 -45 36 -24 22 -27 21
-71 -22z m83 -31 c25 -14 24 -46 -1 -60 -11 -6 -20 -8 -20 -4 0 3 -7 0 -16 -7
-14 -11 -18 -10 -30 6 -36 49 11 94 67 65z"/>
<path d="M7142 9364 c-31 -21 -29 -67 3 -88 13 -9 29 -16 35 -16 19 0 50 40
50 64 0 24 -32 56 -55 56 -6 0 -21 -7 -33 -16z"/>
<path d="M6777 9154 c-10 -3 -17 -13 -15 -22 5 -24 125 -30 134 -7 4 9 4 18 2
21 -8 7 -101 13 -121 8z"/>
<path d="M6985 9135 c-24 -23 -25 -28 -25 -177 l0 -153 -47 -35 c-28 -20 -57
-54 -70 -80 -23 -44 -23 -48 -23 -473 0 -479 0 -477 68 -519 35 -22 41 -22
355 -19 175 1 329 6 342 11 13 5 35 24 49 43 l26 34 0 445 0 445 -26 38 c-31
46 -58 70 -104 91 l-35 16 3 139 c4 153 -3 189 -44 208 -16 7 -100 11 -235 11
-210 0 -210 0 -234 -25z m443 -37 c7 -7 12 -28 11 -47 -1 -32 -2 -33 -8 -11
-6 22 -13 25 -64 28 -49 3 -57 1 -58 -15 0 -10 -3 -13 -6 -5 -2 6 -13 12 -24
12 -10 0 -19 -6 -20 -12 0 -7 -4 -3 -10 10 -7 18 -15 23 -36 20 -27 -3 -28 -6
-31 -60 l-3 -58 -34 0 c-31 0 -35 3 -41 35 -3 19 -4 44 -1 55 4 16 0 20 -23
20 -33 0 -40 -14 -40 -77 0 -68 -24 -51 -28 20 -5 100 -11 97 211 97 137 0
196 -3 205 -12z m-14 -95 c4 -27 2 -43 -4 -43 -5 0 -10 21 -10 47 0 55 5 54
14 -4z m-232 -117 c16 -24 -2 -31 -85 -34 -86 -3 -87 -2 -87 21 0 13 3 26 6
29 10 10 159 -4 166 -16z m75 -28 c-3 -7 -5 -2 -5 12 0 14 2 19 5 13 2 -7 2
-19 0 -25z m53 22 c-10 -6 -11 -10 -2 -10 6 0 12 -4 12 -9 0 -5 -11 -8 -24 -7
-36 2 -23 36 14 36 13 0 13 -1 0 -10z m-182 -119 c15 -16 46 -35 70 -43 23 -7
42 -16 42 -20 0 -5 9 -8 19 -8 11 0 22 -4 26 -9 3 -6 -56 -11 -144 -13 -82 -2
-152 -6 -156 -9 -3 -4 -6 -15 -5 -25 0 -11 1 -84 1 -164 0 -92 4 -138 9 -125
6 13 8 -11 7 -70 0 -50 2 -96 7 -103 4 -6 2 -12 -3 -12 -7 0 -11 -57 -11 -170
l0 -170 -35 0 c-40 0 -45 -15 -15 -47 18 -20 29 -21 300 -22 l280 -2 25 25 25
25 0 416 c0 355 -2 420 -15 446 -17 31 -89 89 -112 89 -7 0 -13 5 -13 10 0 6
11 8 28 4 50 -13 101 -49 124 -89 22 -40 22 -42 20 -454 -1 -436 -4 -466 -46
-476 -11 -3 -160 -4 -330 -3 l-309 3 -21 28 c-20 28 -21 40 -24 410 -2 210 0
406 3 436 9 68 48 112 130 145 79 32 91 31 123 -3z m-51 -328 c-14 -14 -19
-15 -29 -4 -11 10 -10 11 3 6 10 -4 20 -2 24 4 3 6 9 11 13 11 3 0 -1 -8 -11
-17z m213 -22 c54 -28 80 -74 80 -140 0 -100 -52 -151 -153 -151 -123 0 -194
118 -137 229 38 76 133 104 210 62z"/>
<path d="M7172 8344 c-35 -24 -44 -59 -27 -100 35 -83 155 -51 155 42 0 24
-56 74 -82 74 -13 0 -34 -7 -46 -16z"/>
<path d="M5900 9130 c0 -19 5 -21 58 -18 43 2 57 7 57 18 0 11 -14 16 -57 18
-53 3 -58 1 -58 -18z"/>
<path d="M2616 9124 c-3 -9 -6 -272 -6 -585 l0 -569 28 -30 27 -30 388 -1
c429 -1 419 -3 451 64 14 31 16 93 16 564 0 580 2 556 -60 588 -24 13 -94 15
-433 15 -360 0 -406 -2 -411 -16z m828 -56 c14 -20 16 -88 16 -541 l0 -518
-26 -24 -27 -25 -358 0 -358 0 -15 22 c-14 20 -16 89 -16 549 0 290 3 534 6
543 5 14 49 16 385 16 l378 0 15 -22z"/>
<path d="M3315 9042 c-5 -4 -10 -26 -10 -50 0 -39 2 -42 28 -42 25 0 27 3 27
44 0 31 -5 46 -16 50 -19 7 -17 7 -29 -2z"/>
<path d="M2820 9010 c-18 -4 -25 -13 -25 -30 0 -22 5 -25 38 -28 33 -3 37 -1
37 21 0 32 -19 45 -50 37z"/>
<path d="M3051 8998 c-12 -33 5 -50 47 -46 43 4 50 20 23 47 -28 28 -59 27
-70 -1z"/>
<path d="M2914 8996 c-12 -31 4 -47 43 -44 33 3 38 6 38 28 0 22 -5 25 -38 28
-26 2 -39 -1 -43 -12z"/>
<path d="M3170 8985 c0 -26 6 -29 50 -25 54 5 34 49 -22 50 -23 0 -28 -4 -28
-25z"/>
<path d="M2760 8891 c-5 -11 -10 -22 -10 -25 0 -4 141 -5 313 -4 304 3 312 3
312 23 0 20 -8 20 -302 23 -291 2 -303 2 -313 -17z"/>
<path d="M2790 8665 l0 -135 285 0 285 0 0 135 0 135 -285 0 -285 0 0 -135z
m340 87 c0 -8 -133 -132 -153 -143 -7 -4 -40 -9 -74 -12 l-63 -6 0 69 c0 106
-9 100 151 100 76 0 139 -3 139 -8z m143 -18 c3 -3 -1 -27 -9 -52 -7 -26 -11
-54 -9 -62 4 -13 -9 -16 -85 -18 -70 -2 -88 0 -84 10 5 13 163 128 175 128 3
0 8 -3 12 -6z"/>
<path d="M2791 8469 c-5 -13 -7 -27 -4 -32 6 -10 572 -2 583 9 28 28 -10 34
-288 40 l-281 7 -10 -24z"/>
<path d="M2787 8393 c-4 -3 -7 -15 -7 -25 0 -17 16 -18 295 -18 l295 0 0 25 0
25 -288 0 c-159 0 -292 -3 -295 -7z"/>
<path d="M2790 8300 c0 -11 -1 -23 -2 -27 -3 -7 489 -12 545 -5 31 4 37 8 37
28 l0 24 -290 0 c-283 0 -290 0 -290 -20z"/>
<path d="M3068 8232 l-288 -2 0 -25 0 -25 288 0 c158 0 292 4 299 8 13 8 11
46 -3 46 -5 1 -138 0 -296 -2z"/>
<path d="M2793 8143 c-7 -2 -13 -13 -13 -24 0 -18 11 -19 295 -19 l295 0 0 25
0 25 -282 -1 c-156 0 -289 -3 -295 -6z"/>
<path d="M2838 8062 c-44 -3 -48 -5 -48 -29 l0 -25 286 4 c260 4 287 6 296 22
5 10 8 19 6 21 -5 4 -485 11 -540 7z"/>
<path d="M2224 8762 c-7 -4 -19 -24 -28 -45 -13 -32 -19 -37 -43 -35 -19 2
-28 -2 -31 -14 -3 -15 4 -18 42 -18 44 0 45 1 52 35 7 41 21 45 33 11 9 -21
44 -36 87 -36 26 0 14 18 -16 25 -22 5 -36 17 -48 43 -18 38 -30 46 -48 34z"/>
<path d="M7930 8645 l0 -75 40 -1 c22 0 57 -1 78 -2 l37 0 3 76 3 77 -81 0
-80 0 0 -75z"/>
<path d="M2275 8630 c3 -5 20 -10 36 -10 18 0 28 4 24 10 -3 6 -20 10 -36 10
-18 0 -28 -4 -24 -10z"/>
<path d="M2228 8589 c-48 -4 -92 -10 -98 -14 -24 -15 4 -22 67 -18 105 6 133
12 133 28 0 8 -3 14 -7 14 -5 -1 -47 -5 -95 -10z"/>
<path d="M2132 8523 c4 -20 44 -24 136 -16 35 4 52 10 52 19 0 11 -21 14 -96
14 -86 0 -95 -2 -92 -17z"/>
<path d="M1757 8483 c-3 -4 -8 -26 -11 -48 -6 -37 -12 -43 -74 -77 -99 -55
-123 -78 -131 -124 l-6 -39 -59 3 c-54 4 -60 2 -92 -29 -39 -38 -42 -58 -14
-84 39 -35 16 -84 -53 -113 -31 -13 -50 -52 -41 -88 6 -24 28 -33 116 -48 23
-4 45 -17 58 -33 26 -34 25 -49 -3 -57 -32 -8 -77 -44 -77 -61 0 -20 67 -85
88 -85 10 0 27 7 38 15 25 19 33 19 28 -3 -6 -19 13 -42 80 -97 44 -36 46 -39
46 -91 l0 -54 45 0 c29 0 45 4 46 13 0 6 5 -4 12 -23 11 -33 15 -35 71 -43 73
-10 83 -6 92 37 7 41 7 41 37 22 16 -10 31 -11 55 -4 30 8 32 11 32 56 0 44 3
49 35 66 46 25 115 102 115 129 0 37 16 52 52 49 18 -2 43 -8 55 -14 28 -14
57 -3 49 18 -3 9 -6 24 -6 35 0 15 -8 19 -37 20 -21 1 -49 4 -62 8 -22 6 -22
7 -7 20 10 8 24 27 31 42 14 27 33 36 123 59 39 10 42 13 36 38 -12 49 -33 79
-62 91 -16 7 -35 23 -42 37 -12 22 -11 27 13 52 33 34 33 45 5 85 -32 48 -47
58 -70 46 -10 -6 -31 -9 -46 -7 -21 2 -29 12 -42 47 -12 36 -24 49 -68 74 -30
16 -79 40 -110 53 -55 22 -57 24 -62 66 l-5 43 -87 3 c-47 1 -88 -1 -91 -5z
m121 -84 l3 -46 53 -6 c60 -6 127 -35 176 -76 l34 -28 -22 -34 c-29 -48 -68
-83 -77 -70 -12 20 -34 11 -50 -20 -13 -23 -20 -29 -37 -23 -36 11 -173 6
-215 -9 l-40 -14 -59 74 c-33 40 -61 78 -63 84 -9 27 80 89 164 114 35 11 40
16 43 46 5 56 9 60 49 57 37 -3 38 -4 41 -49z m-365 -268 c23 -16 55 -43 71
-60 33 -35 48 -38 66 -16 13 16 35 21 26 6 -4 -5 -1 -11 6 -13 8 -3 -2 -27
-28 -69 -22 -35 -50 -91 -63 -124 -32 -85 -45 -110 -59 -110 -7 0 -29 35 -49
78 l-37 78 24 80 c23 80 22 105 -4 78 -15 -14 -56 -131 -56 -156 0 -17 -81
-14 -87 3 -2 7 21 40 52 75 31 35 63 76 71 92 13 24 13 27 -1 27 -9 0 -15 9
-15 23 0 46 25 49 83 8z m750 13 c20 -6 23 -24 3 -24 -7 0 -19 -7 -26 -15 -11
-13 -9 -20 12 -43 13 -15 33 -40 42 -57 10 -16 30 -42 44 -58 29 -31 23 -43
-26 -53 -27 -6 -32 -4 -32 13 0 28 -69 164 -80 158 -5 -3 2 -38 16 -77 13 -39
24 -83 24 -97 0 -14 -17 -51 -38 -82 l-37 -57 -1 42 c-2 58 -38 145 -80 195
l-37 42 24 17 c13 9 44 37 68 64 45 49 57 52 124 32z m-379 -144 c39 0 115
-59 146 -114 34 -58 36 -77 15 -137 -36 -100 -126 -150 -235 -129 -64 12 -80
21 -118 64 -67 76 -65 160 5 237 48 53 120 92 151 83 8 -2 24 -4 36 -4z m-174
-4 c0 -2 -8 -10 -17 -17 -16 -13 -17 -12 -4 4 13 16 21 21 21 13z m414 -139
c8 -32 -21 0 -33 36 l-11 32 19 -25 c11 -14 22 -33 25 -43z m19 -57 c3 -12 0
-20 -8 -20 -8 0 -11 8 -8 20 3 11 7 20 8 20 1 0 5 -9 8 -20z m37 -84 c0 -14
-20 -36 -32 -36 -9 0 -11 44 -2 53 9 9 34 -4 34 -17z m-667 -27 c-6 -22 -42
-51 -55 -43 -4 3 -8 -1 -8 -8 0 -8 -5 -7 -16 4 -22 21 -13 43 28 68 36 22 59
12 51 -21z m232 -87 c36 -19 134 -26 182 -13 23 6 57 24 74 38 18 16 30 21 27
13 -2 -8 -24 -28 -48 -45 -50 -33 -129 -44 -195 -26 -44 12 -125 82 -125 108
0 9 12 0 31 -23 17 -22 41 -45 54 -52z m13 -67 c103 -34 209 -13 282 57 18 18
30 27 26 21 -5 -9 0 -12 17 -11 18 2 23 7 20 23 -3 19 -3 18 8 -2 6 -12 9 -28
6 -36 -5 -13 -109 -88 -139 -100 -11 -4 -11 -7 0 -15 16 -11 5 -42 -14 -42 -8
0 -14 9 -14 20 0 23 -8 24 -44 10 -14 -5 -26 -16 -26 -24 0 -8 -8 -21 -19 -28
-10 -7 -19 -17 -19 -23 0 -5 -4 -11 -9 -12 -17 -5 -31 13 -35 44 -4 37 -31 66
-81 87 -20 8 -59 29 -87 48 -38 25 -50 39 -50 58 0 52 19 50 77 -6 34 -32 74
-59 101 -69z m-18 -96 c0 -15 -5 -19 -16 -15 -9 3 -18 6 -20 6 -2 0 -4 11 -4
25 0 23 2 24 20 15 11 -6 20 -20 20 -31z"/>
<path d="M1692 7843 c-18 -32 -15 -51 14 -101 30 -51 71 -72 139 -72 91 0 165
59 165 133 0 51 -14 53 -28 3 -14 -54 -66 -101 -121 -111 -72 -12 -121 29
-145 121 -12 46 -13 47 -24 27z"/>
<path d="M1810 7400 c0 -5 5 -10 10 -10 6 0 10 5 10 10 0 6 -4 10 -10 10 -5 0
-10 -4 -10 -10z"/>
<path d="M2135 8480 c3 -5 42 -10 85 -10 43 0 82 5 85 10 4 6 -27 10 -85 10
-58 0 -89 -4 -85 -10z"/>
<path d="M8196 8423 c-3 -10 -8 -36 -12 -58 -10 -60 -21 -75 -71 -97 l-45 -20
-54 37 -53 37 -50 -39 c-28 -21 -52 -43 -55 -49 -2 -6 11 -34 30 -62 19 -28
34 -57 34 -64 0 -7 -14 -36 -30 -65 -29 -50 -32 -52 -90 -64 l-60 -12 0 -63 0
-63 40 -12 c22 -7 40 -16 40 -21 0 -12 38 -10 42 2 2 6 15 -28 30 -76 l26 -86
-34 -38 c-19 -21 -34 -40 -34 -44 0 -13 93 -106 106 -106 8 0 14 3 14 8 0 10
84 62 102 62 8 0 35 -16 60 -35 37 -29 47 -43 52 -78 4 -23 14 -53 22 -66 15
-21 21 -23 67 -17 78 11 87 19 87 77 0 63 13 87 55 105 40 16 54 12 118 -33
l48 -34 44 38 c59 50 58 65 -7 155 -11 15 -8 30 12 90 14 39 32 75 40 79 8 4
38 11 65 16 l50 8 3 59 c4 67 0 72 -68 81 -58 8 -60 10 -87 68 -29 59 -29 63
2 103 14 18 28 46 31 62 5 24 0 33 -27 57 -55 46 -76 51 -102 28 -42 -39 -66
-46 -92 -29 -28 18 -70 87 -81 131 -10 41 -18 45 -96 45 -55 0 -68 -3 -72 -17z
m104 -103 c0 -71 -2 -80 -18 -80 -10 0 -22 -3 -26 -7 -4 -4 -19 -8 -34 -9 -40
-2 -151 -56 -201 -98 -23 -20 -40 -36 -37 -36 4 0 0 -10 -8 -22 -22 -35 -46
-127 -46 -177 0 -25 -5 -53 -10 -61 -8 -12 -10 -11 -10 8 0 18 -6 22 -32 23
-26 0 -29 2 -14 8 19 7 19 8 1 15 -17 6 -17 9 -5 17 11 7 6 9 -20 7 -19 -1
-40 -10 -47 -18 -10 -13 -12 -10 -13 17 0 31 1 31 61 40 l61 8 20 50 c11 27
23 52 27 55 5 3 12 16 16 30 4 14 13 28 19 32 7 5 -5 24 -33 52 l-45 46 24 25
c13 14 26 25 30 25 3 0 22 -16 42 -35 l36 -35 89 29 c81 28 88 32 91 58 10
111 11 113 48 113 l34 0 0 -80z m38 -15 c0 -16 -2 -15 -8 5 -4 14 -8 36 -8 50
0 22 1 22 8 -5 4 -16 8 -39 8 -50z m250 -57 c17 -17 15 -28 -6 -28 -11 0 -24
-11 -30 -25 -6 -14 -16 -25 -22 -25 -6 0 -8 -6 -4 -12 6 -10 4 -10 -7 0 -7 6
-24 12 -36 12 -13 0 -33 8 -44 19 -20 18 -20 18 5 14 17 -4 38 5 68 26 48 34
59 36 76 19z m-340 -314 c3 -47 6 -51 95 -135 l92 -87 -24 -26 c-23 -25 -26
-25 -49 -10 -54 36 -182 149 -188 166 -15 47 29 155 60 145 6 -2 12 -26 14
-53z m487 -19 c0 -30 -38 -30 -71 0 l-29 25 50 -2 c42 -3 50 -6 50 -23z m-759
-293 c-13 -41 -66 -92 -66 -64 0 12 62 94 67 88 3 -2 2 -13 -1 -24z"/>
<path d="M4147 8342 c-39 -24 -71 -93 -63 -138 8 -37 60 -104 82 -104 11 0 14
-17 14 -70 0 -56 -3 -70 -15 -70 -22 0 -18 -38 4 -45 11 -3 22 -13 25 -22 6
-14 9 -14 22 5 8 12 22 22 30 22 21 0 17 31 -6 37 -17 5 -20 14 -20 67 l0 61
48 18 c26 9 55 29 66 43 43 60 25 156 -36 194 -41 25 -113 26 -151 2z m125
-38 c17 -16 17 -18 -4 -35 -23 -21 -17 -25 13 -9 13 7 19 7 19 0 0 -5 -4 -10
-9 -10 -5 0 -7 -9 -4 -20 4 -14 0 -20 -11 -20 -9 0 -16 -6 -16 -13 0 -7 -10
-13 -21 -14 -12 -1 -29 -9 -38 -17 -15 -14 -19 -14 -39 -1 -29 21 -38 75 -18
113 9 17 21 32 28 35 28 11 82 6 100 -9z"/>
<path d="M3710 8165 l0 -135 55 0 c100 0 135 35 135 135 0 100 -35 135 -135
135 l-55 0 0 -135z m124 65 c5 -5 11 -33 14 -63 5 -60 -12 -87 -54 -87 -24 0
-24 2 -24 86 l0 86 28 -7 c15 -3 31 -10 36 -15z"/>
<path d="M6123 8212 c-27 -3 -33 -7 -33 -28 l0 -24 284 0 284 0 5 22 c4 12 5
23 4 24 -4 4 -512 9 -544 6z"/>
<path d="M6090 8030 l0 -30 173 5 c94 2 223 5 285 5 103 0 112 1 112 19 0 10
-7 22 -16 25 -9 3 -137 6 -285 6 l-269 0 0 -30z"/>
<path d="M5838 7948 c-33 -17 -38 -24 -38 -54 0 -18 5 -54 12 -78 11 -43 12
-44 62 -49 34 -3 61 1 82 11 31 14 32 17 33 81 l0 66 -39 23 c-46 26 -62 26
-112 0z m85 -42 c23 -18 22 -31 -5 -44 l-23 -11 23 0 c24 -1 27 -8 13 -30 -13
-20 -75 17 -79 48 -7 44 34 65 71 37z"/>
<path d="M4614 7909 c-51 -18 -29 -89 27 -89 31 0 50 27 42 61 -6 23 -43 38
-69 28z"/>
<path d="M6469 7849 c-14 -5 -36 -27 -48 -49 -16 -30 -29 -40 -47 -40 -13 0
-24 -4 -24 -10 0 -13 34 -30 59 -30 12 0 21 -5 21 -11 0 -5 -4 -7 -10 -4 -5 3
-10 -1 -10 -9 0 -17 54 -60 88 -71 33 -10 88 12 117 46 38 47 35 105 -9 148
-37 36 -92 48 -137 30z m114 -69 c36 -68 -17 -124 -95 -101 -41 13 -52 34 -42
78 11 47 33 64 78 61 35 -3 44 -8 59 -38z"/>
<path d="M6520 7755 c0 -8 0 -18 -1 -22 0 -4 4 -9 10 -11 6 -2 11 8 11 22 0
14 -4 26 -10 26 -5 0 -10 -7 -10 -15z"/>
<path d="M3812 7819 c-78 -50 -44 -176 51 -194 44 -9 104 17 116 48 5 13 19
27 30 30 35 9 24 41 -29 91 -43 40 -55 46 -92 46 -26 0 -56 -8 -76 -21z m110
-29 c8 -12 24 -20 38 -20 15 0 35 -7 46 -16 18 -14 16 -15 -29 -10 -49 6 -92
-7 -82 -25 4 -5 22 -9 41 -9 31 0 33 -2 22 -20 -31 -49 -104 -48 -141 2 -23
30 -18 67 13 98 26 26 76 26 92 0z"/>
<path d="M5050 7813 c-8 -3 -62 -28 -120 -55 -58 -28 -152 -70 -210 -95 -58
-25 -197 -87 -310 -138 -113 -51 -284 -128 -380 -171 l-175 -79 -720 -5 c-533
-4 -725 -8 -741 -17 -45 -26 -92 -91 -99 -135 -3 -24 -5 -864 -3 -1868 l3
-1825 22 -35 21 -34 -43 -38 c-23 -21 -74 -89 -112 -150 -39 -62 -93 -149
-120 -193 -146 -231 -347 -556 -420 -679 l-83 -140 6 -105 c9 -170 18 -203 68
-249 32 -30 57 -43 97 -51 39 -8 986 -11 3429 -9 l3375 3 40 21 c22 11 53 39
69 62 27 38 30 49 37 174 9 161 14 147 -136 383 -59 94 -120 190 -135 215 -30
50 -228 364 -340 540 -94 147 -118 177 -158 196 -29 14 -31 17 -17 30 9 9 23
30 33 47 16 30 17 145 14 1872 -2 1012 -5 1849 -9 1860 -9 33 -52 84 -86 103
-29 16 -91 17 -752 22 l-720 5 -145 66 c-158 73 -481 220 -545 249 -22 10
-116 53 -210 95 -270 123 -302 135 -359 134 -28 0 -58 -3 -66 -6z m450 -201
c184 -83 371 -167 415 -187 44 -20 96 -43 115 -52 19 -8 80 -37 135 -64 55
-27 103 -49 108 -49 4 0 27 -9 52 -21 71 -34 61 -71 -32 -118 -53 -26 -53 -26
-53 4 0 60 -72 165 -143 210 -44 28 -43 9 2 -40 74 -81 75 -86 79 -392 l3
-273 -35 0 -36 0 0 270 c0 351 3 342 -171 430 -144 73 -796 360 -816 360 -10
0 -119 -46 -243 -101 -283 -127 -608 -270 -725 -319 -49 -20 -90 -41 -90 -46
0 -5 45 -26 100 -47 55 -21 287 -115 515 -209 228 -94 426 -170 440 -170 14 0
125 41 247 91 121 50 229 91 240 91 10 0 29 -10 43 -21 22 -18 23 -20 5 -17
-11 2 -58 -15 -105 -38 -47 -22 -107 -49 -133 -59 -33 -12 -44 -21 -35 -26 8
-6 2 -9 -19 -9 -18 0 -33 -4 -33 -10 0 -5 -7 -10 -15 -10 -7 0 -50 -16 -94
-35 -43 -19 -91 -35 -104 -35 -14 0 -83 24 -154 54 -522 219 -964 396 -987
396 -9 0 -16 -8 -16 -20 0 -26 -19 -25 -61 3 -23 15 -34 31 -34 47 0 21 27 35
280 147 433 192 720 321 835 375 84 39 113 48 145 45 24 -2 178 -66 375 -155z
m-326 1 c19 -9 32 -21 29 -26 -3 -6 -1 -7 5 -3 6 3 36 -5 66 -18 57 -25 78
-44 29 -25 -22 8 -25 8 -16 -2 17 -17 -21 -39 -117 -68 -117 -35 -182 -63
-168 -74 8 -5 4 -6 -11 -2 -13 4 -33 3 -45 -3 -60 -29 -117 -53 -170 -73 -43
-16 -55 -24 -45 -31 10 -7 7 -7 -8 -3 -12 3 -37 0 -55 -8 -18 -8 -59 -25 -90
-37 -62 -24 -75 -36 -30 -27 15 2 36 1 47 -4 17 -8 16 -9 -6 -4 -20 3 -33 -3
-59 -30 -19 -19 -29 -35 -22 -35 7 0 12 -6 12 -14 0 -7 10 -21 23 -30 20 -15
19 -15 -18 0 -22 9 -80 31 -130 49 -49 18 -116 44 -147 57 l-57 24 257 112
c141 61 347 152 457 201 110 50 208 90 217 91 10 0 33 -7 52 -17z m-37 -229
c-3 -3 -12 -4 -19 -1 -8 3 -5 6 6 6 11 1 17 -2 13 -5z m-177 -14 c-34 -11 -60
-11 -35 0 11 5 29 8 40 8 16 0 15 -2 -5 -8z m7 -32 c-3 -8 -6 -5 -6 6 -1 11 2
17 5 13 3 -3 4 -12 1 -19z m290 16 c-3 -3 -12 -4 -19 -1 -8 3 -5 6 6 6 11 1
17 -2 13 -5z m-266 -37 c-8 -8 -11 -7 -11 4 0 20 13 34 18 19 3 -7 -1 -17 -7
-23z m-111 13 c0 -5 -2 -10 -4 -10 -3 0 -8 5 -11 10 -3 6 -1 10 4 10 6 0 11
-4 11 -10z m-80 -25 c-14 -8 -32 -14 -40 -14 -8 0 -1 6 15 14 40 18 57 18 25
0z m570 -79 c107 -46 243 -102 302 -126 l108 -44 47 23 c79 39 215 91 225 85
15 -9 9 -60 -9 -76 -19 -17 -92 -44 -107 -40 -10 3 -136 -47 -151 -60 -6 -6
-2 -6 10 -2 l20 7 -20 -16 c-27 -22 -27 -22 -77 12 -24 16 -154 78 -288 136
-224 98 -248 107 -289 101 -50 -7 -71 5 -71 40 0 32 37 56 75 48 17 -3 118
-43 225 -88z m-385 24 c3 -24 2 -40 -1 -37 -3 3 -8 25 -10 48 -2 23 -1 40 2
37 3 -3 7 -25 9 -48z m24 18 c-1 -31 -1 -31 -8 -8 -5 14 -6 28 -4 33 9 15 13
6 12 -25z m-161 15 c-10 -2 -28 -2 -40 0 -13 2 -5 4 17 4 22 1 32 -1 23 -4z
m2965 -81 c17 -9 39 -30 51 -45 l21 -28 -3 -1832 c-3 -2024 2 -1874 -67 -1917
-32 -20 -43 -20 -2699 -20 -2947 0 -2705 -6 -2746 63 -20 31 -20 65 -20 1860
0 2005 -4 1866 58 1912 26 19 45 20 715 23 462 2 687 -1 687 -8 0 -7 -215 -10
-650 -10 -718 0 -689 2 -748 -64 l-32 -37 0 -1805 c0 -1989 -5 -1838 62 -1886
l33 -23 2641 0 2640 0 37 25 c72 49 67 -96 67 1881 0 1983 6 1821 -68 1877
l-35 27 -660 5 c-427 3 -662 9 -664 15 -2 7 226 9 674 7 620 -2 680 -4 706
-20z m-3980 -86 c25 -23 73 -48 144 -76 175 -66 306 -123 342 -147 19 -12 38
-20 43 -17 4 3 8 -4 8 -14 0 -13 -9 -22 -27 -27 -15 -3 -404 -5 -865 -4 -676
2 -840 0 -852 -10 -14 -12 -16 -171 -16 -1615 0 -1599 0 -1602 20 -1624 l21
-22 2457 0 c2208 0 2460 2 2480 16 l22 15 0 1620 c0 1288 -3 1619 -12 1620 -7
0 -301 1 -653 2 l-640 2 -3 32 c-4 36 15 113 27 113 4 0 21 12 37 27 16 15 29
25 29 23 0 -3 11 3 24 12 14 10 20 21 16 29 -5 7 -4 10 2 6 17 -10 36 20 31
48 l-5 25 624 0 c668 0 652 1 698 -50 20 -22 20 -37 20 -1804 l0 -1781 -23
-32 c-12 -17 -32 -35 -45 -39 -12 -4 -1195 -7 -2629 -8 l-2607 0 -28 20 c-16
12 -34 32 -40 45 -10 19 -12 398 -10 1794 2 1695 3 1772 20 1799 37 56 27 55
718 56 l636 0 36 -34z m762 -35 c-3 -5 7 -12 22 -14 l28 -4 -26 -2 c-15 0 -32
6 -39 14 -10 12 -9 15 4 15 10 0 15 -4 11 -9z m689 -27 c5 -14 4 -15 -9 -4
-17 14 -19 20 -6 20 5 0 12 -7 15 -16z m134 -41 c6 -3 12 -9 12 -15 0 -5 5 -6
12 -2 7 4 8 3 4 -4 -11 -19 -65 -14 -96 8 -15 11 -29 18 -31 17 -2 -1 -3 0 -2
2 1 2 -2 12 -8 22 -10 20 -15 21 109 -28z m-618 7 c0 -5 -2 -10 -4 -10 -3 0
-8 5 -11 10 -3 6 -1 10 4 10 6 0 11 -4 11 -10z m-34 -15 c24 -18 7 -19 -26 0
-16 9 -19 14 -9 15 8 0 24 -7 35 -15z m100 -6 c8 -14 -10 -11 -32 6 -18 13
-18 14 4 8 12 -3 25 -9 28 -14z m411 -31 c-3 -7 -5 -2 -5 12 0 14 2 19 5 13 2
-7 2 -19 0 -25z m-460 16 c-3 -3 -12 -4 -19 -1 -8 3 -5 6 6 6 11 1 17 -2 13
-5z m38 -24 c3 -6 -1 -7 -9 -4 -18 7 -21 14 -7 14 6 0 13 -4 16 -10z m450 -10
c-3 -5 -2 -10 4 -10 5 0 11 5 13 12 2 6 11 9 19 6 13 -5 -109 -69 -128 -67 -5
0 10 9 32 20 22 10 34 19 26 19 -11 0 -9 4 5 15 22 17 38 20 29 5z m-298 -6
c-3 -3 -12 -4 -19 -1 -8 3 -5 6 6 6 11 1 17 -2 13 -5z m227 -3 c4 -5 -3 -7
-14 -4 -23 6 -26 13 -6 13 8 0 17 -4 20 -9z m-269 -11 c-3 -5 -12 -10 -18 -10
-7 0 -6 4 3 10 19 12 23 12 15 0z m255 -4 c0 -3 -4 -8 -10 -11 -5 -3 -10 -1
-10 4 0 6 5 11 10 11 6 0 10 -2 10 -4z m-655 -67 c5 -6 2 -9 -9 -9 -26 0 -5
-24 34 -40 25 -10 30 -18 30 -48 0 -19 3 -32 7 -28 4 4 8 15 8 24 0 21 30 17
63 -9 14 -10 28 -16 33 -13 5 3 9 0 9 -5 0 -16 -10 -13 -57 14 -41 23 -59 20
-29 -4 7 -6 11 -22 8 -36 -2 -15 0 -25 7 -25 6 0 11 -10 11 -22 0 -19 -2 -20
-10 -8 -7 12 -10 12 -10 1 0 -7 -6 -11 -15 -7 -8 3 -15 1 -15 -4 0 -5 8 -11
18 -13 12 -4 11 -5 -6 -6 -13 -1 -25 6 -29 17 -7 18 -22 32 -37 32 -6 0 0 -9
12 -20 27 -26 28 -43 2 -35 -10 3 -47 12 -82 19 l-63 13 -3 136 -3 136 58 -25
c32 -14 62 -30 68 -35z m441 46 c10 -8 15 -14 9 -14 -5 0 -19 6 -29 14 -11 8
-15 15 -10 15 6 0 19 -7 30 -15z m609 5 c-27 -12 -43 -12 -25 0 8 5 22 9 30 9
10 0 8 -3 -5 -9z m185 -134 l0 -133 -47 -6 c-27 -3 -56 -9 -67 -13 -14 -5 -17
-3 -14 7 3 8 25 21 49 30 l44 17 3 108 c2 96 9 123 30 124 1 0 2 -60 2 -134z
m260 104 c0 -37 -12 -50 -44 -49 -17 0 -39 4 -49 8 -18 6 -18 7 0 23 26 22 77
47 85 41 5 -2 8 -13 8 -23z m-893 -6 c-3 -3 -12 -4 -19 -1 -8 3 -5 6 6 6 11 1
17 -2 13 -5z m-57 -14 c8 -5 11 -10 5 -10 -5 0 -17 5 -25 10 -8 5 -10 10 -5
10 6 0 17 -5 25 -10z m-945 -230 c14 -22 41 -48 60 -57 40 -19 43 -28 15 -57
-11 -12 -34 -38 -51 -58 -46 -57 -74 -52 -138 21 -28 32 -51 64 -51 70 0 6 18
20 40 31 22 11 46 33 55 49 12 24 22 33 42 40 2 1 14 -17 28 -39z m525 -30 c8
-5 11 -10 5 -10 -5 0 -17 5 -25 10 -8 5 -10 10 -5 10 6 0 17 -5 25 -10z m1498
-47 l3 -43 -45 0 -46 0 0 38 c0 48 6 54 50 50 34 -3 35 -5 38 -45z m-1578 -11
c103 -32 219 -74 400 -145 l115 -44 65 24 c406 155 599 218 617 200 3 -4 7
-96 7 -204 1 -181 -1 -204 -22 -273 -63 -202 -187 -351 -372 -449 -156 -82
-334 -97 -512 -41 -95 29 -234 124 -300 203 -151 185 -198 344 -184 628 l8
146 41 -8 c23 -4 85 -21 137 -37z m-1010 14 c0 -13 -6 -26 -12 -29 -7 -2 -137
-2 -289 1 -160 3 -278 1 -282 -4 -4 -8 -11 -139 -8 -171 1 -10 88 -13 401 -13
355 0 401 -2 407 -16 14 -37 -6 -39 -422 -39 -375 0 -406 1 -422 18 -15 15
-18 35 -17 127 1 163 -28 150 341 150 l303 0 0 -24z m3660 -121 c0 -81 -4
-145 -9 -145 -5 0 -16 -3 -25 -6 -14 -5 -16 11 -16 145 l0 151 25 0 25 0 0
-145z m-183 110 c27 -19 45 -78 33 -110 -17 -44 -76 -67 -125 -49 -21 8 -45
56 -45 89 0 36 50 85 87 85 16 0 38 -7 50 -15z m-1890 -69 c-8 -6 -14 -15 -15
-21 0 -5 -6 -11 -14 -13 -9 -2 -8 0 2 7 13 9 12 11 -5 11 -17 0 -17 2 -5 10 8
5 11 10 6 10 -5 0 -3 7 4 15 10 12 16 13 27 3 13 -10 13 -13 0 -22z m1571 -86
l3 -75 77 0 c75 0 77 0 77 -25 0 -25 -1 -25 -102 -28 l-103 -3 0 81 0 80 -165
0 -165 0 0 25 0 25 188 -2 187 -3 3 -75z m-3043 45 c0 -20 -8 -20 -327 -23
l-328 -2 0 25 0 25 328 -2 c319 -3 327 -3 327 -23z m2523 -247 l2 -268 -35 0
-35 0 7 245 6 245 -29 0 -29 0 0 -245 0 -245 -37 0 -38 0 0 264 c0 304 -12
275 110 273 l75 -2 3 -267z m284 -59 c27 -14 51 -74 43 -109 -8 -37 -45 -70
-87 -76 -29 -5 -41 -1 -68 23 -28 25 -33 37 -34 75 -1 62 30 98 86 98 22 0 48
-5 60 -11z m-2394 -8 c8 -5 12 -17 10 -27 -3 -18 -17 -19 -206 -22 l-202 -2 0
-45 0 -45 208 -2 c199 -3 207 -4 207 -23 0 -19 -8 -20 -215 -23 -209 -3 -215
-2 -232 19 -13 15 -18 39 -18 79 0 60 14 83 55 93 35 8 380 7 393 -2z m-589
-47 c29 -37 29 -116 1 -144 -20 -20 -30 -21 -290 -18 -204 2 -272 6 -282 16
-21 21 -16 126 6 151 18 20 29 21 282 21 l263 0 20 -26z m3707 12 c16 -12 19
-27 19 -90 0 -116 13 -112 -283 -108 -273 3 -287 6 -299 65 -4 18 -7 38 -6 45
0 6 1 21 2 32 0 12 12 32 26 45 l24 25 249 0 c199 0 252 -3 268 -14z m-3521
-446 l0 -185 -69 -3 c-70 -3 -90 6 -79 35 3 8 22 13 54 13 l49 0 0 135 0 135
-45 0 -44 0 -3 -57 c-3 -50 -6 -58 -23 -58 -18 0 -20 8 -23 82 -3 95 -7 92
108 90 l75 -2 0 -185z m2963 138 c-2 -36 -7 -44 -25 -46 -18 -3 -23 2 -23 17
0 18 -6 21 -50 21 l-50 0 0 -135 0 -135 51 0 51 0 -4 60 -4 60 28 0 28 0 0
-69 c0 -103 2 -101 -100 -101 -71 0 -89 3 -94 16 -3 9 -6 92 -6 185 l0 169
101 0 100 0 -3 -42z m-2510 -14 c24 -27 29 -81 11 -116 -14 -26 -67 -48 -101
-41 -62 12 -91 91 -54 147 34 52 103 57 144 10z m2066 -24 c34 -13 33 -26 -6
-51 -18 -12 -24 -18 -13 -15 12 5 1 -12 -30 -43 -49 -50 -75 -63 -75 -38 0 16
-48 61 -75 71 -19 7 -19 8 7 31 15 12 24 25 21 28 -24 25 115 39 171 17z m731
-140 l0 -145 -77 -3 c-78 -3 -78 -3 -78 23 0 24 3 25 55 25 l55 0 0 94 0 95
-47 3 c-37 2 -49 7 -51 22 -6 28 16 36 83 34 l60 -3 0 -145z m-3645 11 c0 -71
-3 -136 -6 -145 -5 -13 -22 -16 -80 -16 -72 0 -74 1 -74 25 0 24 3 25 55 25
l55 0 0 95 0 95 -33 0 c-18 0 -38 -5 -44 -11 -17 -17 -33 -1 -33 32 l0 29 80
0 80 0 0 -129z m3918 121 c9 -7 12 -42 10 -143 l-3 -134 -82 -3 c-76 -3 -83
-1 -83 17 0 23 19 31 76 31 l44 0 0 96 0 97 -50 -6 -50 -6 0 29 0 30 63 0 c34
0 68 -4 75 -8z m-3285 -76 c3 -7 3 -87 0 -177 -4 -129 -8 -168 -21 -181 -14
-17 -49 -18 -472 -18 l-458 0 -5 -22 c-2 -13 -2 -45 2 -73 l6 -50 405 0 405 0
0 -25 0 -25 -413 -3 c-254 -1 -420 2 -431 8 -11 5 -21 26 -25 51 -9 56 3 157
21 175 12 12 88 14 474 14 l459 0 0 170 0 170 24 0 c13 0 26 -6 29 -14z m2359
-153 l3 -168 457 -5 c358 -4 460 -8 470 -18 9 -9 12 -42 11 -110 -2 -79 -5
-99 -20 -109 -13 -10 -104 -13 -418 -11 l-400 3 0 25 0 25 390 -1 c275 -1 392
2 397 10 4 6 8 39 8 74 l0 62 -455 0 c-442 0 -456 1 -475 20 -18 18 -20 33
-20 195 l0 175 25 0 25 0 2 -167z m-1339 -63 l77 -42 -49 -56 c-75 -87 -118
-125 -131 -117 -38 23 -181 251 -180 287 0 7 20 25 43 39 l42 25 60 -47 c34
-26 96 -66 138 -89z m539 83 c15 -18 -44 -135 -119 -235 l-57 -76 -24 26 c-13
15 -54 57 -89 94 l-66 66 54 28 c64 32 154 92 189 126 l25 25 38 -21 c21 -11
43 -26 49 -33z m-2502 -63 c0 -18 -25 -30 -47 -23 -19 7 -16 41 5 45 26 6 42
-2 42 -22z m478 3 c3 -20 -1 -23 -27 -23 -32 0 -36 6 -25 35 10 24 48 15 52
-12z m1163 -32 l26 -59 -30 -6 c-59 -12 -234 -104 -307 -163 -112 -89 -151
-132 -144 -160 4 -13 2 -23 -5 -23 -6 0 -8 7 -4 17 12 31 -16 3 -55 -55 -57
-84 -102 -178 -102 -212 l0 -30 474 0 473 0 45 118 44 117 39 0 39 0 41 -100
c22 -55 46 -109 52 -120 11 -20 20 -20 492 -17 l481 2 0 43 c0 24 -7 69 -15
101 -36 139 -98 238 -217 352 -79 75 -141 112 -305 183 -74 32 -100 47 -96 58
7 19 30 13 144 -36 168 -73 274 -150 369 -267 33 -42 71 -97 84 -123 46 -92
86 -248 86 -338 l0 -33 -1156 0 -1157 0 7 73 c24 263 157 473 390 614 65 40
242 121 266 122 9 1 26 -22 41 -58z m463 -86 c3 -8 0 -15 -7 -15 -7 0 7 -18
31 -40 23 -21 42 -46 42 -55 0 -9 5 -13 10 -10 20 12 9 -31 -16 -58 -20 -23
-27 -27 -39 -17 -12 10 -15 7 -21 -14 -6 -24 -10 -26 -50 -22 -42 4 -44 4 -34
-17 6 -12 -10 0 -35 28 -25 27 -45 56 -45 63 0 14 139 171 151 172 4 0 9 -7
13 -15z m-274 -190 c13 -14 21 -25 18 -25 -2 0 -15 11 -28 25 -13 14 -21 25
-18 25 2 0 15 -11 28 -25z m526 -17 c4 -7 4 -10 -1 -6 -4 4 -15 2 -24 -5 -14
-11 -14 -10 -2 6 16 20 18 21 27 5z m-546 -8 c0 -5 -2 -10 -4 -10 -3 0 -8 5
-11 10 -3 6 -1 10 4 10 6 0 11 -4 11 -10z m500 -24 c0 -2 -8 -10 -17 -17 -16
-13 -17 -12 -4 4 13 16 21 21 21 13z m-49 -43 c-9 -19 -11 -25 -11 -44 0 -8
-4 -8 -14 0 -12 10 -10 16 8 36 25 29 30 31 17 8z m-306 -23 c3 -6 -1 -7 -9
-4 -18 7 -21 14 -7 14 6 0 13 -4 16 -10z m-29 -112 c-19 -27 -20 -22 -4 23 8
23 13 28 16 17 2 -10 -4 -28 -12 -40z m-1453 2 c27 -21 27 -22 27 -159 0 -190
23 -176 -286 -176 -214 0 -245 2 -260 17 -14 14 -16 37 -15 152 1 75 4 143 7
151 11 27 59 33 280 34 210 2 222 1 247 -19z m347 -4 c0 -27 -16 -36 -66 -36
l-35 0 3 -117 3 -117 46 3 c50 3 64 -7 54 -39 -5 -17 -15 -20 -69 -20 -35 0
-67 5 -74 12 -8 8 -12 59 -12 165 0 176 -3 171 98 172 48 1 52 -1 52 -23z
m2710 -6 c0 -30 -1 -30 -55 -30 l-55 0 0 -120 0 -120 61 0 c57 0 60 -1 57 -22
-3 -22 -8 -23 -83 -23 l-80 0 0 165 0 164 25 7 c14 4 49 7 78 8 51 1 52 1 52
-29z m691 11 c23 -19 24 -24 24 -160 0 -121 -2 -143 -18 -158 -16 -16 -43 -18
-255 -21 -311 -4 -292 -15 -292 177 0 144 4 157 50 174 8 3 117 6 241 6 209 1
229 0 250 -18z m-1858 -128 c-7 -2 -19 -2 -25 0 -7 3 -2 5 12 5 14 0 19 -2 13
-5z m325 -220 c-3 -26 -7 -28 -60 -33 -43 -4 -59 -2 -63 8 -13 34 -5 41 48 45
28 2 58 4 65 5 9 1 12 -7 10 -25z m-1048 8 c0 -32 -14 -41 -66 -41 -51 0 -54
1 -54 25 0 24 3 25 60 25 33 0 60 -4 60 -9z m460 -37 c0 -3 -7 -12 -15 -20
-16 -17 -18 -14 -9 10 6 15 24 23 24 10z m-468 -66 c9 -18 34 -54 58 -80 40
-46 45 -68 14 -68 -8 0 -39 25 -69 56 -66 67 -75 116 -24 123 3 1 12 -14 21
-31z m976 20 c21 -21 13 -50 -26 -92 -20 -22 -47 -54 -59 -71 -18 -25 -23 -27
-37 -16 -26 22 -19 44 33 95 27 27 52 59 55 72 7 27 16 30 34 12z m-611 -31
l32 -34 -59 -58 c-39 -39 -64 -56 -74 -52 -27 11 -18 42 25 80 35 32 40 41 34
67 -9 39 3 38 42 -3z m250 4 c-5 -25 0 -36 33 -69 42 -42 50 -69 24 -79 -10
-4 -35 13 -75 53 l-59 58 32 33 c39 41 52 42 45 4z m-877 -16 c0 -30 -3 -35
-22 -34 -35 1 -54 11 -78 42 l-21 27 60 0 61 0 0 -35z m1570 28 c0 -4 -12 -20
-27 -35 -34 -35 -78 -38 -87 -5 -12 44 -9 47 54 47 33 0 60 -3 60 -7z m800
-106 c0 -59 -4 -97 -12 -105 -9 -9 -84 -12 -275 -12 l-263 0 0 25 0 25 250 0
250 0 0 80 c0 79 0 80 25 80 25 0 25 0 25 -93z m-3092 39 c2 -10 -2 -22 -8
-26 -7 -4 -156 -5 -331 -2 l-319 5 0 -101 0 -102 438 -2 437 -3 0 -25 0 -25
-428 -3 c-497 -3 -491 -4 -503 73 -3 26 -4 81 0 124 10 119 -14 112 380 109
315 -3 331 -4 334 -22z m3592 -11 c0 -18 -5 -25 -19 -25 -24 0 -33 13 -25 34
10 27 44 20 44 -9z m-162 3 c7 -7 12 -20 12 -30 0 -15 -8 -18 -45 -18 -37 0
-47 -4 -61 -25 -19 -29 -21 -100 -3 -121 14 -17 51 -18 67 -2 19 19 14 28 -12
28 -29 0 -39 12 -30 35 5 12 17 15 53 13 l46 -3 3 -42 c8 -111 -144 -130 -188
-23 -18 43 -8 116 21 147 42 45 112 66 137 41z m-2703 -28 c3 -10 3 -30 -1
-44 -6 -25 -5 -25 58 -28 57 -3 63 -5 66 -25 3 -22 1 -23 -73 -23 -77 0 -77 0
-73 25 4 17 1 25 -9 25 -9 0 -13 -8 -11 -24 3 -26 -45 -86 -69 -86 -25 0 -13
48 20 83 26 28 31 41 29 72 -2 22 2 41 8 45 18 11 49 0 55 -20z m1507 -26 c-2
-36 3 -47 33 -77 35 -35 47 -77 22 -77 -7 0 -27 15 -45 33 l-32 33 -64 -9
c-76 -12 -99 -6 -94 25 3 21 9 23 76 26 47 2 72 -1 72 -8 0 -6 5 -8 11 -4 8 4
2 12 -15 21 -19 10 -26 21 -26 42 0 31 12 41 45 38 17 -2 20 -8 17 -43z
m-1011 -44 c22 -13 26 -65 5 -73 -8 -3 -24 5 -37 19 -28 30 -40 30 -69 -1 -33
-35 -50 -32 -50 10 0 22 6 38 18 44 22 14 108 14 133 1z m589 -3 c29 -14 37
-41 20 -62 -11 -13 -17 -11 -42 10 -37 31 -39 31 -77 -1 -17 -14 -35 -23 -41
-19 -17 10 -12 63 8 74 24 14 102 13 132 -2z m-1670 -22 l0 -25 -372 2 -373 3
-3 23 -3 22 375 0 376 0 0 -25z m1350 -105 c25 -32 38 -40 64 -40 18 0 41 -6
52 -14 18 -14 18 -16 -15 -62 -25 -36 -34 -59 -35 -93 -1 -45 -2 -46 -31 -44
-16 1 -44 5 -61 8 -21 5 -42 1 -64 -10 -46 -24 -60 -14 -60 43 0 38 -6 57 -30
88 -47 62 -38 84 36 84 29 0 38 6 59 40 14 22 32 40 39 40 8 0 29 -18 46 -40z
m1575 -20 l0 -25 -257 -3 -258 -2 0 23 c0 13 3 27 7 31 4 3 119 5 257 4 l251
-3 0 -25z m-993 -80 c21 -31 36 -40 70 -47 55 -11 61 -37 18 -78 -25 -24 -30
-36 -30 -76 0 -26 -4 -50 -9 -54 -6 -3 -31 0 -56 6 -39 10 -52 9 -85 -6 -21
-9 -43 -14 -49 -11 -6 4 -11 27 -11 52 0 36 -7 53 -32 85 -38 48 -32 68 27 85
21 5 48 23 62 40 13 16 28 34 33 41 14 18 31 7 62 -37z m-1150 2 c20 -29 35
-40 69 -47 56 -13 64 -43 23 -86 -20 -21 -30 -43 -34 -77 -5 -45 -6 -47 -35
-44 -43 3 -95 4 -135 0 l-35 -3 -3 51 c-2 39 -9 57 -27 74 -33 31 -32 63 0 78
14 7 35 12 46 12 11 0 30 16 47 40 15 21 34 39 43 40 9 0 28 -17 41 -38z
m2668 -102 c0 -60 -3 -110 -7 -110 -5 0 -17 -3 -28 -6 -20 -5 -21 -2 -17 98 4
122 5 128 32 128 19 0 20 -6 20 -110z m-3795 40 l0 -25 -227 -3 c-198 -2 -227
-4 -232 -19 -4 -9 -4 -24 -1 -34 6 -18 21 -19 236 -19 l229 0 0 -25 0 -25
-243 0 c-176 0 -246 3 -255 12 -17 17 -16 132 1 147 11 8 316 19 472 16 15 0
20 -7 20 -25z m663 -2 l-3 -23 -269 -3 c-148 -1 -273 1 -278 6 -5 5 -6 16 -2
25 5 15 34 17 281 17 l274 0 -3 -22z m2890 0 l-3 -23 -505 -3 c-278 -1 -510 0
-517 2 -6 3 -9 14 -6 25 5 21 9 21 520 21 l514 0 -3 -22z m-2873 -123 c0 -19
-8 -20 -287 -23 l-288 -2 0 25 0 25 288 -2 c279 -3 287 -4 287 -23z m2865 0
l0 -25 -470 0 -470 0 0 25 0 25 470 0 470 0 0 -25z m890 -627 c23 -16 97 -126
249 -368 119 -190 268 -429 332 -530 147 -232 156 -251 141 -285 -7 -14 -23
-30 -38 -35 -16 -7 -1240 -10 -3457 -10 -3247 0 -3434 1 -3467 18 -32 15 -35
21 -34 58 1 47 2 50 394 679 48 77 127 205 176 285 49 79 104 159 122 177 l33
33 2758 0 2758 0 33 -22z m-2766 -1278 c1982 0 3466 -4 3466 -9 0 -5 -6 -14
-13 -20 -10 -8 -959 -11 -3470 -11 l-3456 0 -15 22 c-21 30 -20 41 3 28 14 -7
1116 -10 3485 -10z"/>
<path d="M4480 7206 c0 -2 9 -6 20 -9 11 -3 18 -1 14 4 -5 9 -34 13 -34 5z"/>
<path d="M5983 7080 c-24 -10 -43 -21 -43 -24 0 -6 77 27 87 37 10 11 1 8 -44
-13z"/>
<path d="M2981 7025 c-61 -78 -13 -172 77 -151 15 4 32 7 37 8 22 3 22 111 1
143 -23 36 -86 36 -115 0z m84 -25 c15 -17 16 -24 6 -46 -6 -14 -9 -29 -6 -34
3 -5 -4 -12 -16 -15 -41 -13 -66 60 -32 97 20 23 26 23 48 -2z"/>
<path d="M7510 7021 c-55 -54 -33 -134 40 -146 46 -7 59 3 71 53 13 61 -6 100
-59 116 -17 6 -29 0 -52 -23z m80 -55 c0 -13 -9 -34 -19 -47 l-19 -24 -18 37
c-17 36 -17 38 1 57 22 26 55 12 55 -23z"/>
<path d="M2536 7019 c-30 -23 -33 -45 -10 -77 29 -42 104 -18 104 35 0 21 -23
46 -52 56 -9 3 -28 -3 -42 -14z"/>
<path d="M2715 7015 c-51 -50 -17 -135 55 -135 30 0 43 6 64 31 14 17 26 39
26 49 0 10 -12 32 -26 49 -33 40 -83 43 -119 6z"/>
<path d="M3271 7014 c-28 -35 -27 -76 3 -110 49 -57 146 -19 146 57 0 72 -105
109 -149 53z"/>
<path d="M7285 6985 c-14 -13 -25 -32 -25 -43 0 -24 36 -62 60 -62 24 0 34 16
15 24 -16 6 -20 43 -6 65 13 20 30 5 25 -22 -4 -20 -4 -21 5 -2 5 11 10 30 10
43 1 32 -51 31 -84 -3z"/>
<path d="M6868 6969 c-24 -14 -22 -35 4 -53 29 -21 41 -20 69 3 23 19 24 19 5
40 -21 23 -51 27 -78 10z"/>
<path d="M7066 6964 c-21 -21 -20 -41 3 -54 24 -12 81 -13 81 -1 0 5 3 16 6
24 14 37 -59 62 -90 31z"/>
<path d="M5380 7000 c0 -5 5 -10 10 -10 6 0 10 5 10 10 0 6 -4 10 -10 10 -5 0
-10 -4 -10 -10z"/>
<path d="M4581 6704 c0 -11 3 -14 6 -6 3 7 2 16 -1 19 -3 4 -6 -2 -5 -13z"/>
<path d="M4096 6549 c-27 -39 13 -91 53 -69 25 13 32 45 14 69 -18 27 -48 27
-67 0z"/>
<path d="M7004 6496 c-3 -8 -4 -25 -2 -38 2 -17 9 -23 28 -23 22 0 25 4 25 35
0 29 -4 36 -23 38 -13 2 -24 -3 -28 -12z"/>
<path d="M6441 6081 c-44 -44 -11 -101 47 -80 19 7 23 15 20 40 -2 19 -12 38
-25 46 -19 13 -24 12 -42 -6z"/>
<path d="M3011 6036 c-7 -8 -11 -27 -9 -43 l3 -28 250 0 250 0 3 36 c3 31 -1
37 -20 43 -13 3 -123 6 -244 6 -181 0 -224 -3 -233 -14z"/>
<path d="M6746 6037 c-13 -9 -17 -23 -14 -52 l3 -40 240 0 240 0 0 50 0 50
-225 3 c-174 2 -230 -1 -244 -11z"/>
<path d="M4082 5738 c-21 -21 -15 -68 11 -77 45 -17 78 28 50 68 -16 23 -43
27 -61 9z"/>
<path d="M6100 5710 c0 -5 5 -10 11 -10 5 0 7 5 4 10 -3 6 -8 10 -11 10 -2 0
-4 -4 -4 -10z"/>
<path d="M6228 5713 c7 -3 16 -2 19 1 4 3 -2 6 -13 5 -11 0 -14 -3 -6 -6z"/>
<path d="M6151 5686 c-9 -11 -9 -16 0 -22 7 -4 9 -3 5 4 -3 6 2 15 11 21 10 6
13 11 7 11 -6 0 -17 -6 -23 -14z"/>
<path d="M6190 5660 c0 -5 5 -10 11 -10 5 0 7 5 4 10 -3 6 -8 10 -11 10 -2 0
-4 -4 -4 -10z"/>
<path d="M3040 4892 l-35 -7 4 -115 c2 -63 4 -116 5 -117 5 -5 401 -13 426 -8
l30 7 0 119 0 119 -162 0 c-90 0 -179 2 -198 4 -19 2 -51 1 -70 -2z m142 -62
c7 -11 20 -20 30 -20 32 0 28 -17 -14 -61 -25 -27 -43 -39 -46 -31 -2 7 -15
26 -28 42 l-24 28 27 30 c34 36 39 37 55 12z m188 -25 c0 -26 -4 -35 -16 -35
-12 0 -15 6 -10 23 3 12 6 28 6 35 0 6 5 12 10 12 6 0 10 -16 10 -35z"/>
<path d="M6768 4894 c-16 -5 -18 -20 -18 -124 l0 -118 83 -7 c45 -4 100 -5
122 -3 l40 3 3 89 3 88 34 -6 c19 -4 36 -2 40 4 14 22 26 8 23 -27 -3 -38 -7
-41 -40 -28 -16 6 -18 0 -18 -59 l0 -66 80 0 c97 0 95 -3 99 146 l2 104 -144
0 c-79 0 -177 2 -218 4 -41 3 -82 3 -91 0z m170 -96 c-2 -22 -9 -34 -20 -36
-15 -3 -18 4 -18 32 0 30 4 36 21 36 17 0 20 -5 17 -32z"/>
<path d="M5092 4111 c-22 -25 -30 -47 -12 -36 6 3 10 1 10 -4 0 -6 -6 -11 -12
-11 -9 0 -8 -4 2 -10 11 -7 11 -10 2 -10 -7 0 -10 -4 -7 -10 10 -17 82 -12 89
6 12 30 6 51 -22 75 l-27 25 -23 -25z"/>
<path d="M5677 4022 c-27 -32 -36 -57 -26 -75 6 -9 7 -23 3 -30 -5 -9 -4 -9 6
0 7 7 25 9 40 6 24 -4 28 -1 34 27 5 25 1 38 -18 61 -22 26 -25 27 -39 11z"/>
<path d="M4532 4014 c-7 -15 -20 -24 -33 -24 -21 0 -21 -1 -6 -18 10 -10 17
-26 17 -34 0 -11 12 -17 40 -20 38 -3 40 -2 40 24 0 16 5 28 10 28 19 0 10 15
-24 42 l-33 27 -11 -25z"/>
<path d="M2726 3207 c-29 -10 -530 -751 -522 -773 5 -12 227 -14 1576 -14
1489 0 1570 1 1570 18 0 9 -7 55 -15 101 -8 47 -12 87 -9 90 5 5 1056 2 1061
-3 0 0 3 -12 5 -26 l3 -25 -425 0 c-234 0 -442 -1 -462 -3 -34 -2 -40 -7 -63
-53 -15 -28 -25 -60 -23 -72 l3 -22 543 -3 c509 -2 542 -1 542 15 0 18 -58
215 -135 459 -25 78 -45 146 -45 153 0 8 46 11 173 9 l172 -3 3 -27 3 -27
-133 -3 -133 -3 -9 -28 c-7 -20 -6 -39 4 -70 l15 -42 160 -3 c136 -2 162 -5
173 -19 21 -29 14 -33 -54 -33 -76 0 -99 -10 -108 -45 -9 -36 11 -103 34 -115
21 -11 162 -13 234 -4 28 4 46 12 46 20 0 7 -34 97 -75 199 -41 102 -75 190
-75 195 0 6 61 10 159 10 136 0 160 -2 165 -16 15 -38 9 -41 -111 -43 -69 -1
-123 -7 -131 -14 -15 -12 -10 -68 10 -112 l11 -25 153 0 c147 0 153 -1 169
-22 l15 -23 -80 -7 c-44 -4 -84 -9 -90 -13 -18 -11 -11 -84 14 -145 13 -32 21
-61 18 -64 -3 -3 -76 -6 -163 -6 -152 0 -158 -1 -173 -22 -18 -26 -21 -80 -6
-109 10 -18 25 -19 370 -19 299 0 360 2 360 14 0 7 -62 141 -139 297 -76 156
-141 294 -145 307 l-7 22 195 0 c164 0 197 -3 210 -16 9 -8 16 -22 16 -30 0
-12 -29 -14 -165 -14 -150 0 -165 -2 -174 -19 -11 -19 -2 -66 21 -108 11 -23
14 -23 220 -23 202 0 209 -1 231 -22 l22 -23 -125 -6 c-69 -3 -126 -7 -127 -8
-1 0 -4 -14 -8 -30 -8 -39 11 -108 35 -121 10 -6 91 -10 184 -10 157 0 166 -1
176 -21 7 -11 9 -24 5 -27 -4 -4 -83 -8 -177 -9 -108 -2 -176 -7 -184 -14 -16
-14 -19 -92 -4 -120 10 -18 24 -19 275 -19 215 0 265 3 265 13 0 8 -54 92
-119 188 -66 96 -182 266 -258 377 -76 112 -141 206 -144 208 -11 7 -3058 6
-3069 -1 -6 -4 -20 -24 -31 -47 -25 -49 -35 -45 -14 5 8 20 15 39 15 42 0 3
-101 5 -224 5 l-225 0 -40 -67 c-22 -37 -38 -70 -35 -75 3 -4 39 -8 80 -8 41
0 74 -3 74 -6 0 -3 -5 -14 -10 -25 -10 -17 -22 -19 -146 -19 -74 0 -144 -5
-155 -10 -10 -6 -35 -35 -54 -65 -19 -30 -36 -55 -38 -55 -2 0 -1 26 1 59 3
36 0 61 -7 65 -6 4 -76 4 -155 0 l-144 -7 -46 -62 c-25 -35 -46 -68 -46 -74 0
-8 100 -11 350 -11 234 0 350 -3 350 -10 0 -16 -45 -102 -69 -130 l-20 -25 6
52 c5 50 5 52 -22 59 -15 4 -106 4 -203 2 l-176 -5 -26 -33 c-14 -18 -37 -47
-52 -64 l-26 -31 10 53 c7 31 7 57 2 62 -12 11 -376 24 -390 13 -20 -15 -106
-144 -100 -150 3 -4 42 -8 86 -11 44 -2 80 -6 80 -9 0 -2 -8 -15 -17 -30 l-17
-25 -333 3 c-183 2 -333 5 -333 6 0 1 4 13 10 27 l10 26 167 0 c93 0 178 3
189 6 26 7 47 64 42 114 -4 43 -18 48 -160 49 -111 1 -127 8 -84 37 22 13 65
15 342 13 l317 -3 18 23 c21 26 27 115 8 126 -6 4 -134 7 -284 6 -150 -1 -276
2 -279 7 -3 5 2 19 10 31 13 19 24 21 72 19 31 -1 285 -1 564 0 l507 2 10 38
c15 50 14 102 -1 107 -24 8 -1068 10 -1092 2z m354 -56 c0 -13 -10 -20 -31
-25 -50 -10 -319 -7 -319 3 0 5 7 17 16 25 13 13 43 16 175 16 149 0 159 -1
159 -19z m299 13 c17 -4 31 -12 31 -19 0 -16 -55 -25 -157 -25 -74 0 -83 2
-83 18 0 10 3 22 7 25 8 9 160 9 202 1z m355 0 c9 -3 16 -12 16 -19 0 -18 -65
-27 -173 -23 l-87 3 15 23 c15 20 24 22 115 22 54 0 105 -3 114 -6z m592 -5
c13 -22 -14 -27 -174 -32 -148 -5 -163 -4 -160 11 4 22 50 29 205 31 78 0 124
-3 129 -10z m344 -8 c0 -17 -9 -20 -62 -24 -86 -7 -158 -7 -158 0 0 4 7 15 17
25 13 15 32 18 110 18 85 0 93 -2 93 -19z m334 13 c32 -12 16 -31 -30 -38 -58
-7 -199 -8 -206 0 -3 3 -4 14 -1 25 5 17 15 19 113 19 60 0 115 -3 124 -6z
m344 0 c12 -4 22 -12 22 -20 0 -10 -30 -14 -130 -16 -129 -3 -130 -3 -130 20
0 21 3 22 108 22 59 0 117 -3 130 -6z m356 -10 c4 -9 5 -18 4 -19 -2 -1 -60
-5 -130 -8 l-128 -6 0 25 0 24 124 0 c106 0 125 -2 130 -16z m324 10 c12 -4
22 -12 22 -19 0 -14 -73 -25 -176 -25 -71 0 -84 6 -84 41 0 10 201 12 238 3z
m376 0 c9 -3 16 -15 16 -25 0 -19 -8 -19 -137 -17 -135 3 -138 4 -141 26 -3
22 -2 22 121 22 69 0 132 -3 141 -6z m423 -9 c3 -9 2 -19 -2 -23 -3 -4 -72 -7
-152 -7 -142 0 -146 1 -154 23 l-8 22 155 0 c130 0 156 -2 161 -15z m665 -2
c10 -9 18 -20 18 -25 0 -4 -132 -7 -292 -6 l-293 3 -3 23 -3 23 278 -1 c239
-1 280 -3 295 -17z m-2604 -119 c3 -19 -3 -21 -80 -27 -46 -4 -113 -7 -150 -7
l-68 0 -24 -49 c-23 -44 -41 -61 -67 -61 -5 0 -9 20 -9 44 0 71 -16 80 -130
72 -52 -3 -109 -6 -126 -6 -25 0 -35 -8 -58 -44 -16 -25 -37 -53 -47 -62 -50
-45 -85 -44 1084 -46 l1102 -3 3 -22 3 -23 -703 -1 c-387 -1 -716 -4 -733 -8
-23 -5 -37 -18 -60 -61 l-30 -55 -3 55 c-2 30 -9 58 -15 62 -17 11 -291 10
-319 -1 -32 -12 -95 -128 -79 -144 9 -9 131 -13 437 -14 234 -2 430 -5 435 -8
5 -4 9 -15 9 -26 0 -16 -7 -19 -47 -20 -181 -2 -1273 -5 -1273 -3 0 2 5 14 11
28 11 24 14 25 150 28 92 2 142 7 150 15 7 7 15 39 17 72 5 69 -1 76 -73 77
-27 0 -81 1 -119 2 l-69 2 23 25 c13 14 29 25 35 25 15 0 25 54 25 137 0 40 4
63 13 66 6 3 185 5 397 4 383 -2 385 -2 388 -23z m1362 6 c0 -11 -1 -23 -2
-26 -2 -4 -49 -6 -106 -5 -56 1 -122 -1 -147 -4 -42 -7 -44 -8 -55 -56 -14
-59 -35 -64 -49 -11 -21 77 -17 75 -203 67 l-166 -7 -9 -46 c-11 -59 -28 -63
-42 -10 -19 75 -13 73 -178 70 -81 -1 -171 -5 -200 -8 -50 -6 -52 -7 -72 -55
-11 -27 -24 -49 -30 -49 -6 0 -13 17 -16 38 -4 20 -11 50 -16 66 -5 16 -9 35
-9 42 0 12 111 14 650 14 643 0 650 0 650 -20z m-1842 -108 c3 -21 1 -22 -107
-22 -61 0 -111 3 -111 8 1 24 22 31 105 34 114 5 109 5 113 -20z m-1258 14 c0
-2 -3 -11 -6 -20 -5 -14 -40 -16 -280 -16 -222 0 -274 3 -274 13 0 8 3 17 7
20 7 7 553 10 553 3z m418 -13 c-3 -16 -18 -18 -120 -21 -113 -3 -116 -2 -111
18 5 19 13 20 120 20 104 0 114 -2 111 -17z m432 -3 c0 -19 -7 -20 -135 -20
-74 0 -135 2 -135 4 0 2 3 11 6 20 5 13 27 16 135 16 122 0 129 -1 129 -20z
m890 0 c0 -19 -7 -20 -144 -20 -139 0 -144 1 -139 20 5 19 14 20 144 20 132 0
139 -1 139 -20z m500 0 c0 -19 -7 -20 -160 -20 -153 0 -160 1 -160 20 0 19 7
20 160 20 153 0 160 -1 160 -20z m420 0 c0 -19 -7 -20 -125 -20 -118 0 -125 1
-125 20 0 19 7 20 125 20 118 0 125 -1 125 -20z m478 -2 c3 -17 -9 -18 -147
-18 -145 0 -151 1 -151 20 0 20 5 20 147 18 131 -3 148 -5 151 -20z m436 6 c3
-9 6 -18 6 -20 0 -3 -62 -3 -137 -2 -122 3 -138 5 -141 21 -3 15 8 17 131 17
114 0 136 -2 141 -16z m410 0 c3 -9 6 -18 6 -20 0 -2 -58 -4 -130 -4 -71 0
-130 2 -130 4 0 2 -3 11 -6 20 -5 14 9 16 124 16 109 0 131 -3 136 -16z m506
-4 c11 -20 8 -20 -170 -20 -99 0 -180 2 -180 4 0 2 -3 11 -6 20 -5 14 13 16
170 16 165 0 176 -1 186 -20z m-4930 -192 c-1 -33 -18 -38 -144 -45 l-128 -6
16 31 17 32 119 0 c89 0 120 -3 120 -12z m582 -13 l-4 -25 -154 0 c-132 0
-154 2 -154 15 0 26 40 34 181 34 l136 1 -5 -25z m490 0 l-4 -25 -148 0 c-82
0 -155 -3 -164 -6 -22 -9 -20 12 4 36 18 18 33 20 169 20 l148 0 -5 -25z m410
19 c3 -3 4 -14 1 -24 -5 -17 -17 -19 -134 -22 -71 -2 -129 -1 -129 2 0 3 7 16
16 28 14 21 23 22 128 22 62 0 115 -3 118 -6z m518 -6 c-1 -35 -15 -39 -148
-36 l-132 3 15 23 c15 21 23 22 141 22 93 0 124 -3 124 -12z m518 -15 c3 -22
3 -22 -180 -25 -101 -2 -185 -2 -187 -1 -2 1 0 14 3 28 l6 25 178 -2 c174 -3
177 -3 180 -25z m515 5 c3 -12 4 -24 2 -27 -1 -3 -98 -5 -214 -3 l-211 3 0 24
0 25 209 0 c206 0 209 0 214 -22z m601 6 c3 -9 6 -20 6 -25 0 -5 -107 -9 -255
-9 l-255 0 0 25 0 25 249 0 c218 0 250 -2 255 -16z m462 -1 c7 -10 14 -21 14
-25 0 -5 -38 -8 -85 -8 -69 0 -87 3 -92 16 -9 24 15 34 86 34 49 0 67 -4 77
-17z m426 -6 c15 -24 7 -27 -71 -27 -81 0 -98 7 -87 37 5 13 18 14 79 8 39 -3
75 -12 79 -18z m546 -4 l14 -23 -131 0 -131 0 0 25 0 26 116 -3 c108 -3 118
-5 132 -25z m-3868 -93 c0 -3 -8 -15 -18 -28 -17 -22 -23 -23 -200 -25 -100
-1 -182 -1 -182 0 0 1 5 13 11 27 12 25 12 26 163 28 205 4 226 4 226 -2z
m-430 -7 c0 -5 -7 -17 -15 -27 -14 -18 -29 -20 -190 -20 -96 -1 -175 1 -175 4
0 3 3 15 6 28 6 22 8 22 190 22 101 0 184 -3 184 -7z m3818 -18 c11 -24 11
-25 -27 -25 -21 0 -58 -3 -83 -6 -44 -6 -46 -5 -56 25 l-11 31 83 0 c79 0 83
-1 94 -25z m-3919 -90 c2 -2 1 -11 -2 -20 -5 -13 -32 -15 -172 -15 -169 0
-171 0 -144 35 7 9 308 9 318 0z m1234 5 c650 0 657 0 657 -20 0 -20 -7 -20
-690 -20 -379 0 -690 3 -690 6 0 3 5 14 11 26 8 14 17 18 32 14 12 -3 318 -6
680 -6z m3322 -21 c20 -19 19 -19 -180 -17 -191 3 -200 4 -203 23 -3 19 2 20
180 17 166 -3 185 -5 203 -23z m-4977 4 c-3 -17 -28 -18 -337 -21 l-334 -2 18
20 c17 19 30 20 337 20 299 0 319 -1 316 -17z m850 0 c-3 -16 -21 -18 -176
-21 -171 -2 -173 -2 -162 18 10 19 20 20 176 20 152 0 165 -1 162 -17z m2610
-5 c3 -17 -24 -18 -467 -18 -259 0 -471 2 -471 4 0 2 3 12 6 20 6 15 53 16
467 14 431 -3 462 -4 465 -20z m676 6 c3 -9 6 -18 6 -20 0 -2 -76 -4 -170 -4
-135 0 -170 3 -170 13 0 8 3 17 7 20 3 4 77 7 164 7 134 0 158 -2 163 -16z
m254 -4 c12 -19 10 -20 -78 -20 -83 0 -90 1 -90 20 0 18 7 20 78 20 66 0 79
-3 90 -20z"/>
<path d="M2508 2703 c17 -2 47 -2 65 0 17 2 3 4 -33 4 -36 0 -50 -2 -32 -4z"/>
<path d="M4273 2336 c-39 -18 -60 -49 -69 -102 -8 -51 16 -106 52 -123 18 -8
261 -11 875 -11 l850 0 24 24 c33 33 41 87 21 141 -33 86 36 80 -896 82 -687
2 -830 0 -857 -11z m1662 -46 c3 -5 -3 -10 -14 -10 -18 0 -21 -6 -21 -50 l0
-50 -167 -1 c-93 -1 -152 -4 -133 -8 19 -3 -271 -6 -645 -6 l-679 0 -13 25
c-19 37 -16 48 16 81 l29 29 811 0 c529 0 812 -3 816 -10z"/>
<path d="M4112 7748 c3 -22 7 -23 88 -23 81 0 85 1 88 23 3 21 1 22 -88 22
-89 0 -91 -1 -88 -22z"/>
<path d="M6080 7745 c0 -11 7 -15 23 -13 12 2 22 8 22 13 0 6 -10 11 -22 13
-16 2 -23 -2 -23 -13z"/>
<path d="M3053 7577 c-74 -76 -122 -132 -117 -137 5 -5 68 -10 141 -11 129 -2
132 -1 185 28 l53 30 7 104 c4 57 6 104 5 105 -1 1 -35 4 -75 6 l-73 4 -126
-129z m236 31 c0 -45 -16 -115 -18 -82 -1 6 -19 35 -41 64 -22 29 -40 57 -40
62 0 4 23 8 50 8 l50 0 -1 -52z m-119 13 c0 -5 18 -31 40 -57 47 -57 49 -71
14 -84 -29 -11 -214 -14 -214 -3 0 10 142 153 152 153 5 0 8 -4 8 -9z"/>
<path d="M1150 7687 c-46 -15 -107 -78 -119 -124 -26 -100 -9 -132 20 -37 22
71 74 126 136 143 52 15 63 14 108 -9 46 -23 45 -23 45 -10 0 6 -15 19 -32 30
-37 22 -101 25 -158 7z"/>
<path d="M2605 7607 l-40 -32 23 -47 c22 -48 23 -48 72 -48 41 0 50 3 50 18 0
9 9 31 20 49 l19 32 -37 31 c-20 16 -43 30 -52 29 -8 0 -33 -14 -55 -32z m73
-49 c-5 -34 -38 -37 -38 -4 0 20 5 26 21 26 15 0 20 -5 17 -22z"/>
<path d="M7060 7560 c-29 -29 -27 -94 2 -114 53 -37 118 -5 118 58 0 63 -77
99 -120 56z m75 -41 c8 -26 -16 -54 -39 -46 -19 7 -21 38 -4 55 18 18 36 14
43 -9z"/>
<path d="M3554 7533 c-9 -15 -27 -35 -38 -44 -17 -14 -18 -19 -7 -33 21 -25
38 -19 51 19 6 19 18 35 26 35 17 0 18 -22 2 -38 -18 -18 7 -40 30 -26 29 18
26 51 -7 84 -16 17 -32 30 -34 30 -3 0 -13 -12 -23 -27z"/>
<path d="M6778 7516 c-7 -33 8 -56 37 -56 26 0 40 28 30 60 -10 31 -61 28 -67
-4z"/>
<path d="M8920 7500 c-23 -21 -42 -30 -66 -30 -26 0 -45 -10 -79 -41 -25 -23
-45 -48 -45 -55 0 -10 -13 -14 -44 -14 -36 0 -48 -5 -65 -26 -27 -34 -27 -78
-1 -104 19 -19 33 -20 365 -20 337 0 345 0 366 21 28 28 19 75 -22 112 -25 23
-38 28 -72 25 -30 -2 -43 -8 -45 -21 -3 -15 0 -16 23 -7 40 15 79 -7 83 -46 3
-29 0 -32 -35 -37 -49 -9 -571 -9 -612 -1 -34 7 -41 34 -17 67 14 19 51 23 61
7 12 -19 23 -10 53 43 36 63 77 87 118 68 33 -15 47 -14 41 2 -3 7 0 20 7 28
46 63 158 37 198 -47 12 -24 27 -43 33 -41 30 11 -27 106 -78 130 -19 10 -57
17 -85 17 -42 0 -55 -5 -82 -30z"/>
<path d="M7492 7498 c-32 -32 6 -78 66 -78 35 0 96 22 106 38 11 18 -5 42 -29
42 -12 0 -34 -9 -47 -20 l-25 -19 -23 24 c-27 28 -31 30 -48 13z"/>
<path d="M8409 7480 c-31 -26 -15 -26 18 0 14 11 21 20 15 20 -5 0 -20 -9 -33
-20z"/>
<path d="M1316 7469 c-14 -11 -26 -30 -26 -42 0 -20 1 -19 28 6 32 30 58 34
89 12 19 -13 22 -13 27 0 9 25 24 17 56 -30 l31 -45 -68 -1 c-37 0 -126 -3
-198 -6 -71 -2 -181 -1 -242 2 -110 7 -113 8 -113 31 0 25 25 44 59 44 22 0
28 14 11 25 -17 11 -89 -15 -105 -38 -20 -29 -19 -70 3 -90 17 -15 55 -17 340
-17 314 0 322 0 332 21 15 27 4 72 -23 96 -28 25 -104 53 -143 53 -17 0 -43
-9 -58 -21z"/>
<path d="M8290 7110 l0 -50 -45 0 c-38 0 -45 -3 -45 -20 0 -17 7 -20 44 -20
l45 0 3 -47 c3 -40 6 -48 23 -48 17 0 20 8 23 47 l3 47 42 3 c30 2 43 8 45 21
3 14 -4 17 -42 17 l-46 0 0 50 c0 47 -2 50 -25 50 -23 0 -25 -3 -25 -50z"/>
<path d="M860 6997 c0 -153 0 -154 -26 -178 -54 -50 -54 -44 -54 -641 0 -610
-1 -595 63 -642 27 -20 43 -21 353 -24 317 -3 326 -2 360 19 71 44 69 22 72
629 2 300 0 559 -3 576 -3 18 -17 48 -30 68 -24 35 -25 44 -25 191 l0 155
-355 0 -355 0 0 -153z m652 -28 c2 -72 2 -131 1 -132 -1 -1 -44 -1 -97 1 -95
3 -96 4 -96 28 0 21 3 24 21 19 12 -4 42 -4 67 0 38 6 43 9 27 16 -11 4 -41 8
-67 8 -39 1 -48 4 -48 19 0 14 10 18 52 20 71 4 83 16 23 22 -27 3 -55 2 -61
-2 -8 -6 -14 3 -18 23 -8 40 -1 51 30 43 29 -8 114 4 114 15 0 5 -112 9 -250
10 -220 2 -250 0 -250 -13 0 -10 9 -16 25 -16 31 0 33 -16 3 -26 -41 -12 -49
-40 -16 -53 l22 -8 -27 -25 c-30 -28 -34 -38 -13 -38 37 0 28 -45 -9 -48 -23
-2 -25 2 -25 36 0 20 -3 81 -7 135 l-6 97 301 0 301 0 3 -131z m-224 -173
c215 -3 245 -6 262 -21 27 -25 25 -39 -3 -20 -19 12 -76 15 -319 17 -288 3
-297 2 -325 -18 -20 -15 -30 -34 -36 -67 -4 -25 -6 -209 -5 -409 l3 -363 23
-3 22 -3 0 185 0 186 135 0 135 0 2 -187 c3 -186 3 -188 26 -191 l22 -3 0 191
0 192 108 -6 c59 -4 115 -9 125 -12 15 -5 17 -22 17 -165 0 -90 -4 -159 -9
-159 -16 0 -19 23 -14 130 3 64 1 116 -6 133 -10 26 -14 27 -76 27 -107 0
-105 3 -105 -163 0 -98 4 -147 12 -155 8 -8 48 -12 112 -12 l101 0 -5 -128
c-3 -81 -10 -135 -17 -144 -11 -13 -45 -14 -214 -12 -160 3 -203 1 -214 -10
-8 -7 -11 -16 -8 -20 4 -3 2 -6 -3 -6 -6 0 -16 6 -23 13 -10 10 -11 9 -6 -5 6
-16 0 -18 -53 -18 -50 0 -66 4 -89 24 l-28 24 0 549 c0 301 3 561 8 576 12 45
57 65 135 61 37 -2 176 -5 310 -8z m201 -85 c10 -7 12 -21 7 -56 l-8 -47 -151
4 -152 3 -1 -145 -1 -145 -137 -3 -136 -3 0 126 0 125 120 0 c111 0 120 1 120
19 0 25 -33 32 -134 31 -126 -2 -116 -6 -116 44 0 26 5 46 13 49 22 9 561 7
576 -2z m66 -21 c3 -5 -1 -10 -9 -10 -8 0 -18 5 -21 10 -3 6 1 10 9 10 8 0 18
-4 21 -10z m-75 -245 l0 -126 -122 3 -123 3 -3 123 -3 122 126 0 125 0 0 -125z
m-95 -275 c0 -8 -10 -16 -22 -18 -25 -4 -31 -26 -36 -132 -2 -39 -4 -21 -5 46
-1 61 1 114 5 118 13 12 58 2 58 -14z"/>
<path d="M966 6214 c-13 -12 -16 -41 -16 -154 0 -164 -1 -163 113 -158 l72 3
3 144 c3 176 1 181 -94 181 -44 0 -67 -5 -78 -16z m104 -44 c0 -15 -7 -20 -25
-20 -27 0 -33 -18 -38 -130 -2 -39 -4 -21 -5 46 -1 61 1 114 5 117 3 4 19 7
35 7 21 0 28 -5 28 -20z"/>
<path d="M1173 5827 c-3 -5 -2 -11 2 -15 9 -10 194 -9 188 1 -2 4 2 7 11 7 8
0 17 -6 19 -12 4 -9 8 -10 14 -2 4 6 15 13 23 16 8 3 -45 7 -118 9 -74 2 -136
0 -139 -4z"/>
<path d="M1044 6532 l-82 -3 -7 -65 c-9 -89 -3 -94 101 -94 l84 0 0 79 c0 44
-3 81 -7 83 -5 2 -45 2 -89 0z m45 -84 c11 -29 10 -30 -44 -35 -45 -5 -45 -5
-45 26 0 30 2 31 40 31 33 0 42 -4 49 -22z"/>
<path d="M1328 6522 c-47 -3 -48 -4 -48 -36 0 -29 4 -34 31 -40 17 -3 49 -6
70 -6 39 0 39 0 39 39 0 44 -9 48 -92 43z"/>
<path d="M1270 6395 c0 -12 16 -15 86 -15 76 0 85 2 74 15 -9 11 -33 15 -86
15 -59 0 -74 -3 -74 -15z"/>
<path d="M1816 7080 c-125 -40 -125 -216 0 -262 30 -11 34 -16 39 -63 7 -55 2
-151 -10 -197 -6 -24 -4 -28 14 -28 15 0 21 -6 21 -21 0 -16 4 -19 21 -14 15
5 19 4 15 -4 -5 -7 7 -11 37 -11 44 0 45 1 50 38 15 111 39 241 48 267 8 21
29 185 24 185 0 0 -15 -4 -33 -9 -32 -10 -33 -9 -57 39 -14 28 -36 57 -49 65
-30 20 -83 27 -120 15z m101 -65 c15 -13 23 -25 16 -25 -7 0 -10 -7 -6 -16 3
-9 2 -19 -3 -23 -5 -3 -15 -18 -22 -34 -24 -56 -94 -61 -125 -8 -24 42 -21 68
12 102 38 38 88 39 128 4z m93 -241 c0 -8 5 -14 11 -14 6 0 8 -8 5 -18 -3 -10
-7 -36 -8 -59 -1 -25 -5 -40 -11 -36 -6 3 -7 1 -3 -6 4 -6 4 -26 1 -43 -6 -26
-10 -29 -19 -17 -6 8 -22 15 -35 17 -14 1 -26 3 -27 5 -1 1 -4 45 -6 97 l-5
95 49 -3 c33 -3 48 -8 48 -18z"/>
<path d="M9080 7005 c-25 -7 -126 -39 -225 -70 -99 -31 -274 -85 -390 -120
-249 -76 -369 -116 -413 -139 -25 -13 -32 -23 -32 -47 0 -40 39 -79 81 -79 27
0 438 122 863 256 79 25 159 44 184 44 39 0 55 7 119 55 76 58 90 85 54 105
-28 14 -187 11 -241 -5z m190 -33 c0 -11 -66 -42 -90 -42 -10 0 -22 -5 -25
-10 -9 -15 -35 8 -35 30 0 10 6 21 13 23 20 9 137 8 137 -1z m-190 -26 c0 -18
-54 -37 -400 -141 -157 -48 -339 -104 -405 -125 -112 -36 -135 -40 -135 -21 0
8 189 69 545 176 184 56 383 118 393 124 1 0 2 -5 2 -13z m-980 -316 c0 -11
-7 -20 -15 -20 -8 0 -15 9 -15 20 0 11 7 20 15 20 8 0 15 -9 15 -20z"/>
<path d="M9156 6645 c-121 -29 -230 -58 -243 -64 -17 -8 -23 -19 -23 -41 0
-24 -5 -31 -27 -36 -16 -3 -41 -10 -58 -14 -74 -21 -317 -71 -379 -79 -41 -4
-110 -4 -164 2 -111 11 -154 2 -197 -43 -25 -26 -30 -39 -29 -76 1 -28 8 -52
20 -65 45 -50 31 -49 696 -49 343 0 647 3 676 7 l53 6 -3 41 c-3 35 -8 43 -35
57 -39 20 -63 38 -63 50 0 4 21 9 48 11 l47 3 -2 40 c-2 33 -1 36 6 15 7 -22
9 -23 16 -7 4 9 0 49 -9 88 -9 39 -16 86 -16 104 0 46 -9 65 -30 65 -10 0 -20
9 -23 20 -3 11 -13 20 -24 19 -10 0 -117 -24 -237 -54z m223 -47 c0 -45 -2
-50 -11 -31 -13 27 -24 32 -65 26 -20 -3 -30 -9 -26 -16 4 -6 0 -8 -9 -4 -9 3
-38 0 -64 -7 -39 -10 -44 -14 -27 -18 12 -3 25 -3 28 1 4 3 31 6 60 7 40 0 50
-2 41 -11 -12 -13 -56 -21 -211 -39 l-100 -11 -13 -64 c-20 -103 -28 -102 -41
9 -7 56 -10 104 -7 107 2 3 87 24 188 48 101 24 192 45 203 48 52 12 55 10 54
-45z m-61 -135 c-3 -27 -6 -28 -68 -35 -36 -3 -97 -8 -137 -11 -66 -4 -72 -3
-77 17 -3 11 -2 24 2 28 8 7 156 24 235 27 47 1 48 0 45 -26z m-434 -35 c15
-56 12 -58 -74 -58 -77 0 -81 -1 -90 -25 l-10 -25 -235 0 c-197 0 -239 3 -251
15 -28 27 -114 11 -114 -21 0 -46 65 -70 102 -37 17 15 18 15 18 0 0 -16 48
-17 589 -17 383 0 592 -4 596 -10 4 -7 -212 -10 -642 -10 -571 0 -651 2 -671
16 -28 19 -29 63 -3 95 16 20 27 23 68 22 258 -10 334 -5 518 35 99 22 183 40
186 41 4 0 9 -9 13 -21z"/>
<path d="M9147 6539 c7 -7 15 -10 18 -7 3 3 -2 9 -12 12 -14 6 -15 5 -6 -5z"/>
<path d="M9110 6530 c8 -5 20 -10 25 -10 6 0 3 5 -5 10 -8 5 -19 10 -25 10 -5
0 -3 -5 5 -10z"/>
<path d="M9501 6374 c0 -11 3 -14 6 -6 3 7 2 16 -1 19 -3 4 -6 -2 -5 -13z"/>
<path d="M1755 6308 c-10 -31 0 -63 21 -66 17 -2 23 4 28 29 3 17 3 35 0 40
-8 13 -44 11 -49 -3z"/>
<path d="M1865 6310 c-3 -6 -3 -24 0 -41 5 -24 11 -29 28 -27 18 2 22 10 22
38 0 28 -4 36 -22 38 -11 2 -24 -2 -28 -8z"/>
<path d="M1980 6280 c0 -36 3 -40 25 -40 23 0 25 4 25 40 0 36 -2 40 -25 40
-22 0 -25 -4 -25 -40z"/>
<path d="M2092 6283 c2 -30 8 -39 24 -41 15 -2 23 3 27 17 9 36 -3 61 -30 61
-22 0 -24 -4 -21 -37z"/>
<path d="M8596 6049 c-15 -12 -32 -32 -36 -45 -6 -14 -18 -24 -30 -24 -27 0
-25 -16 3 -35 13 -8 28 -30 35 -49 31 -84 162 -86 212 -3 24 38 25 68 5 107
-36 70 -131 94 -189 49z m128 -40 c30 -35 32 -49 11 -88 -25 -50 -91 -57 -124
-15 -24 30 -26 55 -9 87 29 56 83 63 122 16z"/>
<path d="M8678 5973 c-19 -5 -25 -23 -8 -23 5 0 7 -7 4 -15 -5 -11 0 -14 19
-13 16 1 24 7 22 18 -2 8 -4 21 -4 28 -1 12 -4 13 -33 5z"/>
<path d="M2091 6001 c-15 -27 9 -56 37 -47 24 8 29 35 10 54 -17 17 -36 15
-47 -7z"/>
<path d="M537 6003 c-12 -11 -7 -36 10 -56 17 -18 17 -19 0 -32 -20 -15 -23
-55 -3 -55 7 0 21 10 29 23 l16 22 20 -25 c16 -20 22 -23 33 -12 10 10 9 18
-5 41 -14 25 -15 30 -2 47 8 10 15 25 15 32 0 18 -31 15 -47 -5 -13 -17 -14
-17 -29 5 -17 23 -26 27 -37 15z"/>
<path d="M1750 5965 c-19 -23 -4 -47 27 -43 22 2 29 9 31 31 3 23 0 27 -21 27
-14 0 -30 -7 -37 -15z"/>
<path d="M8060 5940 c0 -19 6 -20 166 -20 152 0 165 1 162 18 -3 15 -20 17
-166 20 -157 2 -162 2 -162 -18z"/>
<path d="M9397 5943 c-4 -3 -7 -19 -7 -35 0 -24 -4 -28 -30 -28 -23 0 -30 -4
-30 -20 0 -20 30 -42 52 -38 8 2 14 -9 16 -25 5 -38 36 -33 40 6 2 19 8 27 17
23 7 -2 21 1 31 8 15 11 16 19 8 46 -10 35 -34 53 -34 26 0 -9 -7 -16 -15 -16
-10 0 -15 10 -15 30 0 28 -17 40 -33 23z"/>
<path d="M8160 5746 c0 -18 -11 -30 -42 -48 -77 -42 -73 -128 8 -183 29 -20
29 -21 26 -102 -2 -73 -6 -86 -27 -107 -14 -14 -25 -31 -25 -38 1 -17 31 -54
51 -61 26 -9 77 22 84 51 5 22 1 32 -23 52 -28 24 -31 30 -34 106 l-3 82 31
11 c59 21 96 82 69 117 -14 18 -14 18 -15 -8 0 -34 -51 -78 -90 -78 -19 0 -36
9 -50 27 -30 39 -23 73 23 103 30 19 38 29 34 48 -3 17 0 22 12 20 17 -4 18
-10 7 -75 -7 -40 -6 -43 14 -43 14 0 24 8 27 21 6 20 9 20 234 15 224 -6 229
-5 229 14 0 19 -7 20 -225 20 l-225 0 0 30 c0 32 -22 50 -64 50 -21 0 -26 -5
-26 -24z m38 -468 c4 -21 -36 -44 -50 -30 -6 6 -7 20 -3 32 8 25 48 24 53 -2z"/>
<path d="M9055 5710 c-16 -7 -11 -9 22 -9 23 -1 45 -6 49 -12 4 -8 -13 -10
-57 -7 l-63 3 -8 -32 c-7 -27 -15 -34 -51 -44 -51 -14 -97 -36 -185 -93 -37
-23 -75 -46 -86 -49 -15 -6 -17 -14 -12 -40 4 -24 -1 -47 -18 -82 -13 -28 -26
-60 -30 -72 -6 -17 -16 -23 -48 -25 -37 -3 -43 -7 -50 -33 -4 -16 -5 -51 -2
-77 6 -47 7 -47 49 -54 40 -5 44 -9 50 -41 3 -19 22 -67 40 -105 27 -56 32
-74 24 -90 -7 -14 -7 -23 2 -34 14 -17 36 -18 41 -3 2 7 31 -9 67 -36 34 -26
95 -60 134 -75 61 -24 72 -32 81 -61 13 -41 46 -59 109 -59 69 0 49 20 -21 22
l-57 1 60 6 c57 6 61 8 69 37 8 26 18 34 50 44 66 19 166 72 178 93 7 14 12
16 18 7 6 -10 14 -9 36 2 24 11 29 20 29 48 0 19 9 51 21 70 22 38 49 107 58
153 6 24 11 27 46 27 l40 0 0 70 c0 75 -10 90 -64 90 -16 0 -26 6 -26 14 0 8
-16 45 -35 82 -27 52 -33 70 -23 81 9 11 5 20 -17 43 -16 17 -34 30 -42 30 -7
0 -40 18 -75 40 -34 22 -88 49 -121 59 -54 16 -61 21 -73 57 -20 59 -56 77
-109 54z m140 -155 c73 -19 160 -76 197 -130 31 -45 31 -45 19 -64 -7 -10 -22
-1 -64 41 -48 47 -67 58 -129 76 -115 33 -159 36 -238 17 -46 -11 -74 -24 -80
-36 -14 -25 -100 -90 -111 -83 -5 3 -6 -3 -2 -12 5 -13 3 -15 -7 -9 -10 6 -12
4 -7 -9 4 -9 3 -15 -2 -12 -17 11 -34 -51 -37 -139 -5 -95 1 -139 15 -130 5 2
12 -6 15 -19 10 -42 96 -145 143 -173 25 -15 87 -37 137 -49 82 -20 87 -23 46
-23 -25 -1 -65 6 -90 13 -97 31 -155 55 -155 64 0 6 -4 14 -9 19 -5 5 -6 3 -2
-4 13 -23 -8 -14 -29 12 -11 14 -28 35 -37 46 -10 12 -18 34 -18 48 0 21 -2
23 -11 11 -9 -12 -10 -11 -6 7 3 13 1 26 -4 29 -5 3 -9 -2 -9 -10 0 -16 -15
-22 -23 -8 -2 4 -2 0 1 -8 14 -49 15 -53 4 -46 -15 9 -39 95 -48 168 -13 113
58 268 157 343 102 78 249 104 384 70z m-145 -173 c0 -47 -1 -48 -45 -70 -27
-13 -55 -37 -72 -63 -24 -37 -28 -52 -28 -118 0 -61 4 -81 20 -102 55 -73 147
-97 231 -60 90 40 124 90 124 182 0 90 -60 161 -153 183 -26 6 -28 10 -25 49
4 49 12 50 94 12 111 -51 166 -132 166 -241 1 -110 -58 -200 -164 -254 -110
-55 -229 -36 -313 48 -60 61 -86 112 -92 183 -7 78 23 156 80 205 36 30 148
92 170 93 4 1 7 -21 7 -47z m68 -205 c92 -97 103 -119 70 -140 -14 -9 -30 2
-95 63 -75 72 -123 126 -123 141 0 13 32 40 44 37 6 -2 53 -47 104 -101z
m-500 16 c-2 -11 -14 -19 -31 -21 -22 -3 -27 1 -27 17 0 17 6 21 31 21 24 0
30 -4 27 -17z m788 -134 c-21 -69 -57 -129 -102 -168 -52 -46 -138 -80 -184
-73 -19 3 -12 8 30 19 61 16 151 73 186 118 36 48 74 137 76 180 1 36 2 37 5
8 2 -17 -3 -55 -11 -84z m-659 29 c-3 -7 -5 -2 -5 12 0 14 2 19 5 13 2 -7 2
-19 0 -25z"/>
<path d="M8681 5074 c0 -11 3 -14 6 -6 3 7 2 16 -1 19 -3 4 -6 -2 -5 -13z"/>
<path d="M1927 5694 c-16 -17 -7 -150 16 -211 12 -35 25 -63 30 -63 17 0 119
64 124 79 3 9 8 25 13 36 9 24 31 127 28 130 -2 1 -42 7 -91 14 -48 6 -93 14
-100 17 -7 2 -16 1 -20 -2z m80 -66 c15 -6 31 -11 36 -10 16 4 5 -27 -23 -62
-33 -42 -30 -44 -45 47 -7 42 -7 41 32 25z"/>
<path d="M8530 5601 c0 -19 5 -21 68 -21 63 0 104 11 90 25 -3 4 -40 9 -82 12
-73 6 -76 5 -76 -16z"/>
<path d="M625 5410 c-3 -5 -19 -10 -34 -10 -42 0 -115 -51 -136 -96 -12 -24
-19 -61 -19 -95 -1 -72 40 -145 97 -172 l37 -19 0 -142 c0 -135 1 -143 25
-179 14 -20 30 -37 35 -37 19 0 10 -17 -15 -28 -46 -21 -58 -64 -52 -188 3
-62 10 -121 16 -133 10 -18 7 -22 -32 -39 -111 -49 -148 -185 -82 -298 19 -32
40 -50 82 -71 l58 -28 572 -3 c404 -2 585 1 615 9 65 17 113 71 128 143 29
140 -39 253 -164 273 -39 6 -48 28 -16 38 22 7 18 25 -7 25 -8 0 -29 12 -47
27 -41 34 -99 59 -104 44 -2 -6 -10 -11 -17 -11 -8 0 -14 16 -17 46 -4 56 5
73 20 39 l11 -25 47 32 c25 17 54 45 65 62 10 17 29 33 40 36 23 6 30 15 49
68 7 17 19 32 26 32 8 0 14 5 14 10 0 6 -13 10 -29 10 -44 0 -71 40 -71 105 0
35 5 57 15 65 17 14 21 80 5 80 -5 0 -10 5 -10 10 0 6 25 8 70 4 l70 -7 0 45
c0 34 4 48 17 52 15 6 15 8 3 16 -8 6 -24 10 -36 10 -11 0 -35 11 -54 25 -28
20 -40 24 -73 18 l-40 -6 6 58 c3 31 8 59 10 62 3 2 20 4 38 5 36 0 135 52
143 75 3 7 1 13 -4 13 -5 0 -7 14 -3 30 l6 30 -626 0 c-406 0 -628 -4 -632
-10z m75 -175 c0 -113 -2 -135 -15 -135 -13 0 -15 22 -15 135 0 113 2 135 15
135 13 0 15 -22 15 -135z m878 8 l-3 -128 -391 4 c-360 3 -391 2 -397 -13 -17
-44 -27 4 -27 130 l0 134 410 0 411 0 -3 -127z m216 119 c12 -19 -14 -30 -81
-34 -40 -2 -73 0 -73 3 0 4 -3 14 -6 23 -5 14 5 16 74 16 45 0 83 -4 86 -8z
m-1182 -89 c2 -94 -1 -196 -7 -201 -12 -12 -64 20 -87 54 -33 49 -42 95 -28
139 13 39 72 95 100 95 18 0 20 -8 22 -87z m1068 -40 c0 -12 -5 -23 -11 -23
-7 0 -9 -11 -5 -31 4 -22 2 -29 -7 -27 -7 3 -13 30 -15 73 -3 69 -3 69 17 50
12 -10 21 -29 21 -42z m110 -153 c0 -18 -7 -20 -75 -20 -68 0 -75 2 -75 20 0
18 7 20 75 20 68 0 75 -2 75 -20z m-564 -85 l461 0 11 -24 c10 -21 9 -28 -8
-46 -17 -18 -20 -35 -20 -101 0 -68 3 -81 20 -92 11 -7 20 -17 20 -22 0 -7
-185 -10 -525 -10 l-526 0 -24 25 c-24 23 -25 30 -25 148 0 68 3 127 7 130 3
4 38 4 77 -1 39 -4 278 -7 532 -7z m424 -387 c0 -7 -7 -21 -15 -31 -11 -15
-24 -18 -72 -15 l-58 3 -9 -43 c-6 -29 -5 -60 3 -97 l12 -55 70 0 69 0 0 -36
0 -35 -482 2 c-266 1 -498 6 -515 11 -41 11 -48 33 -48 158 0 75 4 102 18 123
l17 27 505 0 c398 0 505 -3 505 -12z m-950 -460 c0 -64 -6 -118 -15 -143 -13
-38 -14 -34 -15 103 0 120 2 142 15 142 12 0 15 -18 15 -102z m100 10 c0 -93
-12 -162 -30 -173 -6 -4 -10 45 -10 129 0 129 1 136 20 136 19 0 20 -7 20 -92z
m958 83 c53 -11 70 -24 53 -45 -8 -10 -9 -16 -1 -21 13 -8 13 -65 0 -85 -8
-11 -9 -7 -5 15 6 29 6 29 -9 11 -16 -19 -16 -19 -17 5 -1 19 -2 20 -6 4 -3
-19 -10 -20 -134 -17 -71 2 -127 7 -124 11 9 15 -538 26 -565 11 -6 -3 -21 -6
-36 -8 -7 -1 -17 -30 -23 -63 -6 -34 -13 -64 -16 -67 -14 -14 -20 21 -23 134
l-4 124 434 0 c238 -1 452 -5 476 -9z m-1149 -123 c-1 -68 -4 -136 -8 -151
l-6 -28 -35 23 c-50 33 -84 105 -75 160 9 49 69 118 104 118 20 0 21 -4 20
-122z m861 -14 c0 -2 -12 -4 -26 -4 -14 0 -23 4 -20 9 6 8 46 4 46 -5z"/>
<path d="M1303 4913 c26 -2 68 -2 95 0 26 2 4 3 -48 3 -52 0 -74 -1 -47 -3z"/>
<path d="M738 4903 c-34 -5 -36 -20 -4 -34 29 -14 81 1 81 22 0 15 -30 20 -77
12z"/>
<path d="M943 4743 c9 -2 23 -2 30 0 6 3 -1 5 -18 5 -16 0 -22 -2 -12 -5z"/>
<path d="M1068 4743 c6 -2 18 -2 25 0 6 3 1 5 -13 5 -14 0 -19 -2 -12 -5z"/>
<path d="M1248 4743 c6 -2 18 -2 25 0 6 3 1 5 -13 5 -14 0 -19 -2 -12 -5z"/>
<path d="M676 4544 c-8 -21 -6 -23 25 -26 18 -2 24 2 24 17 0 26 -40 33 -49 9z"/>
<path d="M8100 4877 c0 -7 20 -37 45 -65 l44 -53 -3 -72 c-2 -40 -4 -154 -5
-254 -1 -171 -2 -182 -21 -188 -11 -4 -23 -21 -29 -43 -10 -33 -8 -39 16 -64
35 -37 71 -36 107 1 27 28 27 29 12 65 -8 20 -22 39 -31 42 -13 5 -15 40 -15
257 l0 250 50 53 c28 29 50 58 50 63 0 22 -26 10 -70 -34 l-46 -45 -37 50
c-36 48 -67 65 -67 37z m111 -678 c15 -28 -3 -46 -24 -24 -16 15 -13 45 4 45
4 0 13 -9 20 -21z"/>
<path d="M1920 4751 l0 -68 31 -7 c17 -3 53 -6 80 -6 l49 0 0 75 0 75 -80 0
-80 0 0 -69z"/>
<path d="M8434 4582 c-20 -13 -33 -31 -38 -52 -11 -56 -7 -1421 4 -1462 20
-71 -4 -68 575 -68 520 0 520 0 559 23 22 12 49 35 60 50 21 28 21 36 24 683
3 723 5 694 -61 734 -30 19 -53 20 -484 20 -441 0 -452 0 -458 20 -17 55 -126
86 -181 52z m115 -41 c11 -7 13 -119 12 -690 l-2 -681 24 -24 c22 -22 34 -24
168 -31 153 -7 720 -2 754 7 29 7 45 46 43 108 0 31 -3 44 -6 30 -4 -22 -7
-19 -18 20 -11 43 -12 43 -13 13 -1 -44 -2 -45 -13 -67 -7 -13 -6 -21 3 -28
12 -8 11 -9 0 -6 -8 3 -23 -4 -33 -14 -18 -18 -41 -19 -422 -16 -324 2 -406 6
-420 17 -15 12 -16 67 -14 645 l3 631 451 3 450 2 25 -26 24 -26 -3 -641 -3
-642 -34 -32 -35 -33 -457 -2 c-550 -3 -550 -3 -567 11 -7 6 -17 35 -20 63 -6
43 -4 55 10 65 11 8 14 19 10 35 -20 64 -23 98 -10 98 16 0 19 26 4 35 -5 3
-10 31 -10 60 0 46 3 53 16 48 15 -5 15 -3 1 23 -20 39 -26 120 -8 116 10 -2
12 4 7 20 -16 52 -19 100 -7 107 9 6 9 15 1 35 -5 15 -10 45 -10 66 0 31 3 38
15 34 8 -4 15 -2 15 4 0 5 -7 15 -15 22 -21 18 -21 120 0 120 14 0 14 3 0 30
-18 35 -20 97 -2 103 10 3 10 9 0 26 -7 11 -13 43 -13 70 0 30 5 51 13 54 9 4
9 8 -1 15 -21 14 -22 209 -2 222 19 12 70 13 89 1z"/>
<path d="M8747 4383 c-10 -3 -22 -16 -28 -29 -10 -28 -13 -193 -3 -218 5 -14
47 -16 370 -16 l364 0 0 125 c0 113 -2 125 -19 135 -19 10 -646 13 -684 3z
m59 -51 c8 -5 4 -13 -12 -25 -23 -17 -24 -17 -24 1 0 29 14 39 36 24z m314 -1
c0 -12 -157 -135 -193 -152 -31 -14 -46 -6 -26 14 8 7 52 43 99 80 77 61 120
82 120 58z m158 -83 l3 -28 -65 0 c-59 0 -66 2 -66 20 0 15 7 20 28 20 15 0
34 5 42 10 27 18 55 7 58 -22z"/>
<path d="M8664 4036 c-3 -8 -4 -29 -2 -48 l3 -33 68 -3 67 -3 0 51 0 50 -65 0
c-47 0 -67 -4 -71 -14z m86 -25 c0 -15 -16 -22 -34 -15 -25 9 -19 24 9 24 14
0 25 -4 25 -9z"/>
<path d="M8874 4036 c-3 -8 -4 -29 -2 -48 l3 -33 70 0 70 0 0 45 0 45 -68 3
c-52 2 -69 0 -73 -12z m86 -15 c0 -5 -7 -14 -16 -22 -13 -10 -17 -10 -24 1 -5
8 -6 18 -4 22 7 11 44 10 44 -1z"/>
<path d="M9094 4036 c-3 -8 -4 -29 -2 -48 l3 -33 71 -3 c80 -3 87 2 77 62 l-6
36 -69 0 c-50 0 -70 -4 -74 -14z m106 -16 c0 -4 -9 -10 -20 -13 -15 -4 -20 0
-20 13 0 13 5 17 20 13 11 -3 20 -9 20 -13z"/>
<path d="M9309 4046 c-2 -3 -3 -25 -1 -50 l4 -46 68 0 c38 0 71 4 75 9 3 6 3
28 -1 50 l-7 41 -67 0 c-36 0 -69 -2 -71 -4z m91 -25 c0 -5 -7 -14 -15 -21
-12 -10 -19 -10 -28 -1 -9 9 -9 14 3 21 19 12 40 13 40 1z"/>
<path d="M9413 3903 c9 -2 25 -2 35 0 9 3 1 5 -18 5 -19 0 -27 -2 -17 -5z"/>
<path d="M8666 3825 c-4 -14 -4 -36 0 -50 6 -23 10 -25 70 -25 l64 0 0 50 0
50 -64 0 c-60 0 -64 -2 -70 -25z m64 -24 c0 -11 -4 -23 -10 -26 -6 -4 -9 5 -8
19 3 30 18 35 18 7z"/>
<path d="M8870 3806 l0 -44 66 -7 c76 -9 84 -3 84 58 l0 37 -75 0 -75 0 0 -44z
m90 10 c0 -8 -5 -18 -11 -22 -14 -8 -33 11 -25 25 10 16 36 13 36 -3z"/>
<path d="M9088 3807 c4 -45 4 -45 49 -51 25 -3 59 -6 75 -6 28 0 29 1 26 48
l-3 47 -75 3 -75 3 3 -44z m82 8 c0 -14 -4 -25 -10 -25 -11 0 -14 33 -3 43 11
11 13 8 13 -18z"/>
<path d="M9300 3823 c0 -68 6 -73 80 -73 l67 0 7 41 c4 22 4 44 1 50 -4 5 -40
9 -81 9 l-74 0 0 -27z"/>
<path d="M9512 3820 c0 -14 2 -19 5 -12 2 6 2 18 0 25 -3 6 -5 1 -5 -13z"/>
<path d="M9511 3764 c0 -11 3 -14 6 -6 3 7 2 16 -1 19 -3 4 -6 -2 -5 -13z"/>
<path d="M9511 3714 c0 -11 3 -14 6 -6 3 7 2 16 -1 19 -3 4 -6 -2 -5 -13z"/>
<path d="M8662 3643 l3 -48 68 -3 67 -3 0 51 0 50 -71 0 -70 0 3 -47z m73 14
c0 -26 -20 -25 -23 2 -3 16 1 22 10 19 7 -3 13 -12 13 -21z"/>
<path d="M8880 3646 l0 -45 54 -6 c30 -4 59 -4 65 -1 6 4 13 23 17 42 8 46 -3
54 -78 54 l-58 0 0 -44z m90 28 c0 -13 -21 -44 -30 -44 -11 0 -14 33 -3 43 8
8 33 9 33 1z"/>
<path d="M9090 3647 l0 -45 66 -7 c39 -4 70 -3 76 3 5 5 8 27 6 48 l-3 39 -72
3 -73 3 0 -44z m83 -7 c-7 -28 -13 -25 -13 6 0 14 4 23 9 20 5 -3 7 -15 4 -26z"/>
<path d="M9300 3678 c0 -7 3 -30 6 -50 l7 -38 68 0 c69 0 69 0 69 28 0 15 3
37 6 50 6 21 4 22 -75 22 -58 0 -81 -4 -81 -12z"/>
<path d="M9512 3640 c0 -14 2 -19 5 -12 2 6 2 18 0 25 -3 6 -5 1 -5 -13z"/>
<path d="M9512 3555 c0 -16 2 -22 5 -12 2 9 2 23 0 30 -3 6 -5 -1 -5 -18z"/>
<path d="M8666 3504 c-10 -40 2 -64 32 -65 28 -2 79 -1 97 0 6 1 9 20 7 46
l-4 45 -63 0 c-59 0 -63 -1 -69 -26z m77 10 c3 -4 2 -16 -4 -26 -13 -24 -35
-9 -26 16 7 17 19 21 30 10z"/>
<path d="M8874 3488 l1 -43 59 -8 c69 -10 78 -4 80 50 l1 38 -71 3 -71 3 1
-43z m86 13 c0 -27 -15 -34 -31 -15 -10 13 -10 17 2 25 22 13 29 11 29 -10z"/>
<path d="M9090 3486 l0 -44 66 -7 c38 -4 70 -3 75 2 6 6 7 28 3 51 l-7 42 -68
0 -69 0 0 -44z m98 17 c-2 -10 -13 -19 -26 -21 -24 -4 -29 7 -10 26 18 18 40
15 36 -5z"/>
<path d="M9312 3483 l3 -48 65 0 65 0 3 48 3 47 -71 0 -71 0 3 -47z m78 12 c0
-7 -7 -15 -15 -19 -15 -5 -22 24 -9 37 9 9 24 -2 24 -18z"/>
<path d="M9512 3500 c0 -14 2 -19 5 -12 2 6 2 18 0 25 -3 6 -5 1 -5 -13z"/>
<path d="M9513 3415 c0 -22 2 -30 4 -17 2 12 2 30 0 40 -3 9 -5 -1 -4 -23z"/>
<path d="M8672 3323 l3 -48 60 0 60 0 3 48 3 47 -66 0 -66 0 3 -47z m64 11
c-3 -9 -6 -20 -6 -25 0 -6 -4 -7 -10 -4 -16 10 -12 45 6 45 11 0 14 -5 10 -16z"/>
<path d="M8878 3348 c-7 -46 3 -66 34 -72 81 -16 113 2 106 62 -3 26 -6 27
-70 30 -63 3 -67 2 -70 -20z m82 6 c0 -13 -21 -44 -30 -44 -14 0 -12 24 2 38
13 13 28 16 28 6z"/>
<path d="M9090 3323 l5 -48 49 -3 c84 -5 96 1 96 53 l0 45 -78 0 -78 0 6 -47z
m98 7 c-15 -23 -28 -17 -21 9 3 11 11 17 19 14 10 -4 11 -9 2 -23z"/>
<path d="M9305 3328 c4 -24 9 -46 12 -50 2 -5 33 -8 69 -8 l64 0 0 50 0 50
-76 0 -76 0 7 -42z m95 -2 c0 -7 -8 -16 -19 -19 -14 -3 -17 0 -14 14 6 22 33
26 33 5z"/>
<path d="M2070 4455 c0 -32 -2 -35 -30 -35 -23 0 -30 -4 -30 -20 0 -15 7 -20
29 -20 26 0 30 -4 33 -32 4 -45 28 -49 28 -5 0 31 4 35 31 41 37 7 34 30 -4
34 -23 3 -27 8 -27 38 0 24 -5 34 -15 34 -10 0 -15 -11 -15 -35z"/>
<path d="M2077 4124 c-15 -16 -7 -121 11 -145 31 -40 32 -56 6 -94 -23 -35
-24 -40 -24 -235 0 -171 -2 -200 -15 -200 -8 0 -15 -4 -15 -10 0 -5 6 -10 14
-10 21 0 26 -23 26 -111 0 -50 4 -79 11 -79 7 0 10 29 9 83 -1 45 -2 177 -1
293 l1 211 30 38 c37 46 38 84 6 122 -18 22 -26 44 -28 83 -3 50 -15 70 -31
54z"/>
<path d="M1491 3810 c-21 -12 -9 -55 16 -58 23 -3 47 26 35 44 -10 16 -37 23
-51 14z"/>
<path d="M1266 3791 c-3 -5 0 -11 8 -14 15 -6 26 1 26 15 0 11 -27 10 -34 -1z"/>
<path d="M8202 3675 c4 -127 22 -129 26 -2 2 83 0 97 -13 97 -13 0 -15 -14
-13 -95z"/>
<path d="M730 3659 c-32 -13 -78 -56 -96 -91 -11 -21 -14 -88 -14 -327 0 -188
4 -310 11 -328 15 -40 48 -73 94 -94 37 -17 75 -19 523 -19 385 0 489 3 515
14 42 17 84 67 96 114 5 20 12 165 16 322 7 322 6 325 -68 384 l-39 31 -506 2
c-322 1 -516 -2 -532 -8z m1039 -65 c36 -30 57 -94 41 -124 -15 -27 -22 -25
-14 5 5 19 -1 31 -24 55 -35 34 -58 41 -43 11 21 -39 -18 -41 -497 -36 l-453
4 -11 -25 c-8 -17 -17 -23 -30 -18 -13 4 -18 0 -18 -13 0 -15 2 -16 10 -3 8
13 10 12 10 -2 0 -10 -7 -18 -17 -18 -27 0 -6 -13 34 -20 l38 -8 -45 -1 c-40
-1 -48 2 -63 28 -21 37 -22 83 -1 127 31 65 18 63 561 64 l491 0 31 -26z
m-734 -104 c96 -6 93 -7 -67 -8 -107 -1 -168 2 -168 8 0 11 83 11 235 0z
m-259 -36 c-9 -8 -14 -20 -11 -25 4 -5 1 -9 -4 -9 -15 0 -14 5 6 43 9 18 18
26 20 20 3 -7 -3 -20 -11 -29z m344 2 c-5 -5 -76 -4 -167 1 l-158 10 167 -1
c96 0 163 -5 158 -10z m-234 -23 c63 5 69 4 29 -3 -27 -4 -69 -9 -92 -9 -35
-1 -41 2 -36 15 4 11 8 12 13 4 5 -8 31 -10 86 -7z m-101 -127 c33 -8 106 -20
163 -26 56 -7 104 -15 106 -19 3 -4 1 -13 -4 -20 -6 -11 -28 -11 -126 3 -179
25 -210 34 -239 68 -14 16 -25 41 -25 55 0 26 0 26 33 -10 25 -29 45 -40 92
-51z m1030 13 c-28 -30 -91 -48 -235 -68 -100 -14 -137 -16 -142 -7 -11 17
-10 26 5 26 35 0 257 32 291 42 22 7 49 25 65 45 l26 33 3 -26 c2 -14 -4 -34
-13 -45z m-467 -33 c11 -6 9 -13 -6 -30 -11 -11 -23 -35 -26 -52 -5 -21 -15
-34 -29 -38 -33 -9 -77 -7 -77 3 0 4 -12 6 -26 3 -16 -3 -30 1 -35 9 -7 11 -9
10 -9 -3 0 -22 -16 -23 -24 -2 -18 46 -1 104 34 118 21 8 183 2 198 -8z m-119
-206 c84 0 73 -9 -19 -16 -59 -5 -75 -3 -91 12 -33 30 -24 46 14 24 23 -14 50
-20 96 -20z"/>
<path d="M2128 3443 c6 -2 18 -2 25 0 6 3 1 5 -13 5 -14 0 -19 -2 -12 -5z"/>
<path d="M8148 3414 c-10 -3 -18 -12 -18 -20 0 -11 16 -14 70 -14 56 0 70 3
70 15 0 8 -8 15 -17 15 -10 0 -34 2 -53 4 -19 3 -43 2 -52 0z"/>
<path d="M8178 3175 c-1 -25 -2 -53 -2 -62 -1 -11 5 -16 14 -14 8 2 30 6 48 9
42 6 44 32 2 32 -28 0 -30 2 -30 40 0 29 -4 40 -15 40 -11 0 -15 -12 -17 -45z"/>
<path d="M2050 3130 c-24 -8 -23 -8 8 -9 20 -1 31 3 27 9 -3 6 -7 10 -8 9 -1
-1 -13 -5 -27 -9z"/>
<path d="M8556 2847 c-26 -19 -17 -51 15 -55 31 -4 44 19 29 49 -13 22 -20 24
-44 6z"/>
<path d="M8894 2796 c-3 -8 -4 -27 -2 -43 2 -20 8 -28 23 -28 30 0 34 59 5 75
-16 9 -21 8 -26 -4z"/>
<path d="M9000 2765 c0 -31 3 -35 25 -35 22 0 25 4 25 35 0 31 -3 35 -25 35
-22 0 -25 -4 -25 -35z"/>
<path d="M9114 2786 c-11 -29 0 -51 26 -51 21 0 25 5 25 30 0 24 -5 31 -23 33
-13 2 -24 -3 -28 -12z"/>
<path d="M9230 2767 c0 -23 6 -37 17 -41 23 -9 35 6 31 40 -2 21 -9 30 -25 32
-20 3 -23 -1 -23 -31z"/>
<path d="M8603 2690 c-58 -35 -65 -79 -20 -127 42 -47 115 -19 133 50 3 16 16
32 28 37 19 8 17 9 -10 9 -19 1 -39 10 -54 26 -28 30 -36 31 -77 5z m56 -54
c9 -11 8 -18 -5 -30 -23 -24 -48 -16 -52 17 -3 23 0 27 21 27 14 0 30 -6 36
-14z"/>
<path d="M1654 2616 c-7 -19 13 -56 30 -56 21 0 36 24 29 48 -6 25 -50 31 -59
8z"/>
<path d="M1134 2566 c-11 -29 0 -51 26 -51 21 0 25 5 25 30 0 24 -5 31 -23 33
-13 2 -24 -3 -28 -12z"/>
<path d="M8920 2540 c0 -23 4 -30 20 -30 25 0 36 25 20 45 -21 25 -40 18 -40
-15z"/>
<path d="M1437 2496 c-10 -26 -10 -26 23 -26 23 0 30 4 30 20 0 11 -7 20 -16
20 -8 0 -12 -4 -9 -10 3 -5 2 -10 -4 -10 -5 0 -11 5 -13 12 -3 7 -7 5 -11 -6z"/>
<path d="M1348 2366 c-52 -40 -62 -59 -46 -85 16 -26 91 -71 120 -71 29 0 113
51 127 78 14 26 -16 65 -70 92 -54 28 -79 25 -131 -14z m62 -54 c0 -36 -8 -44
-31 -31 -24 12 -24 35 -1 48 27 16 32 13 32 -17z m83 -8 c-1 -5 -11 -15 -22
-23 -20 -13 -21 -12 -21 24 0 37 1 37 23 23 12 -9 21 -19 20 -24z"/>
<path d="M8741 2324 c-27 -35 -27 -65 2 -92 46 -44 127 -12 127 49 0 63 -90
92 -129 43z m77 -42 c3 -18 -1 -22 -22 -22 -19 0 -26 5 -26 18 0 39 43 43 48
4z"/>
<path d="M1170 2005 c0 -33 -4 -45 -15 -45 -8 0 -15 -7 -15 -15 0 -11 12 -15
49 -15 27 0 56 3 65 6 26 10 18 24 -14 24 -29 0 -30 2 -30 45 0 38 -3 45 -20
45 -17 0 -20 -7 -20 -45z"/>
<path d="M9030 2005 c0 -43 -1 -45 -30 -45 -20 0 -30 -5 -30 -15 0 -12 14 -15
64 -15 44 0 67 5 76 15 11 13 8 15 -14 15 -24 0 -26 3 -26 45 0 38 -3 45 -20
45 -17 0 -20 -7 -20 -45z"/>
<path d="M1361 1938 c0 -13 3 -17 6 -10 8 20 36 15 29 -5 -7 -17 -6 -17 10 -1
20 20 11 38 -22 38 -18 0 -24 -5 -23 -22z"/>
<path d="M8863 1953 c11 -3 16 -11 13 -19 -3 -9 -1 -12 4 -9 19 12 10 35 -12
34 -19 -1 -19 -2 -5 -6z"/>
<path d="M7135 1628 c-45 -24 -45 -27 -45 -350 l0 -308 299 0 298 0 8 290 c8
318 5 339 -46 365 -35 19 -481 21 -514 3z m483 -50 c5 -7 8 -31 6 -53 -3 -22
-8 -136 -13 -253 -4 -117 -11 -216 -15 -220 -8 -7 -436 -21 -446 -14 -3 2 -6
120 -8 262 -3 227 -1 260 13 274 14 14 47 16 234 16 163 0 221 -3 229 -12z"/>
<path d="M7346 1281 c-5 -8 19 -11 75 -11 45 0 79 3 75 7 -12 12 -143 15 -150
4z"/>
<path d="M7330 1183 c-19 -3 -39 -9 -44 -14 -6 -5 33 -9 103 -9 64 0 110 4
107 9 -3 5 -15 7 -25 4 -10 -3 -22 0 -25 6 -7 11 -46 12 -116 4z m103 -10 c-7
-2 -21 -2 -30 0 -10 3 -4 5 12 5 17 0 24 -2 18 -5z"/>
<path d="M2583 1584 c-12 -3 -41 -22 -65 -44 -128 -112 -145 -339 -35 -452 61
-64 118 -88 203 -88 116 0 201 56 254 166 28 56 31 167 6 222 l-19 42 42 42
c55 55 78 97 59 110 -25 17 -162 3 -203 -21 l-37 -22 -42 20 c-42 21 -124 33
-163 25z m115 -61 c33 -15 35 -17 14 -21 -15 -2 -22 -9 -18 -17 2 -7 -2 -19
-10 -25 -20 -17 -18 -28 14 -56 15 -14 22 -23 15 -20 -11 6 -33 -48 -33 -83 0
-25 -50 -101 -66 -101 -8 0 -25 -5 -37 -12 -22 -12 -21 -12 8 -19 29 -6 28 -7
-9 -8 -32 -1 -37 2 -32 17 5 14 4 14 -9 -2 -14 -19 -15 -19 -15 -2 0 14 -3 16
-13 7 -32 -26 -60 123 -37 203 22 78 103 156 163 156 15 0 44 -8 65 -17z"/>
<path d="M4453 1532 c-17 -8 -34 -23 -36 -33 -5 -19 7 -86 17 -96 3 -4 31 -8
62 -11 54 -5 55 -4 49 20 -4 16 -1 29 9 37 25 21 19 47 -18 75 -39 29 -39 29
-83 8z m56 -46 c9 -10 7 -19 -7 -36 -15 -18 -20 -20 -30 -8 -14 17 -5 58 13
58 7 0 18 -6 24 -14z"/>
<path d="M3236 1524 c-14 -13 -16 -58 -16 -333 l0 -318 30 -41 c53 -73 47 -72
435 -72 280 0 352 3 380 15 33 13 145 110 145 125 0 4 -10 6 -22 6 -27 -1 -25
-21 -26 232 l-2 204 -28 28 -28 28 -280 -2 c-153 0 -285 -5 -291 -9 -9 -5 -13
-33 -13 -78 0 -62 2 -70 18 -65 39 11 196 18 271 11 72 -6 81 -9 81 -27 0 -19
-6 -20 -182 -17 l-183 4 -3 -118 -2 -117 195 0 c176 0 200 -2 235 -20 21 -11
41 -24 44 -29 6 -9 -701 -21 -714 -13 -3 2 -5 133 -5 290 l0 287 425 0 c325 0
430 -3 447 -13 12 -7 34 -32 48 -57 24 -40 26 -54 27 -157 1 -107 2 -109 8
-43 13 124 11 234 -4 264 -27 50 -33 51 -521 51 -399 0 -455 -2 -469 -16z
m827 -177 l29 -12 2 -140 c2 -169 1 -173 -29 -168 -12 3 -26 0 -29 -6 -12 -19
-64 -13 -76 8 -11 21 -14 288 -4 315 7 19 66 21 107 3z m-225 -3 c43 -6 52
-10 52 -27 0 -19 -4 -19 -67 -14 -38 4 -114 7 -170 7 -82 0 -103 3 -103 14 0
8 6 17 13 19 18 8 213 8 275 1z m46 -200 c3 -9 6 -18 6 -20 0 -2 -79 -4 -175
-4 -139 0 -175 3 -175 13 0 8 3 17 7 20 3 4 79 7 169 7 138 0 163 -2 168 -16z
m-15 -80 c17 -4 31 -13 31 -20 0 -11 -32 -14 -170 -14 -163 0 -170 1 -170 20
0 19 7 20 139 20 76 0 153 -3 170 -6z m183 -205 c25 -13 23 -24 -7 -37 -18 -8
-127 -12 -356 -12 -327 0 -331 0 -362 23 l-32 22 155 5 c296 10 583 9 602 -1z"/>
<path d="M5567 1525 c-4 -8 -15 -15 -25 -15 -33 0 -45 -24 -33 -66 6 -20 8
-41 5 -45 -8 -13 13 -20 62 -21 57 -1 83 26 84 84 0 34 -4 39 -37 55 -21 9
-41 18 -44 20 -4 2 -9 -3 -12 -12z m39 -72 c2 -12 -1 -25 -7 -29 -16 -9 -43
22 -35 41 8 23 38 15 42 -12z"/>
<path d="M2031 1491 c-25 -25 -28 -77 -5 -109 12 -17 25 -22 58 -22 52 0 76
22 76 71 0 48 -19 69 -67 76 -33 4 -45 1 -62 -16z m74 -57 c0 -22 -5 -29 -20
-29 -23 0 -32 30 -14 51 18 22 34 11 34 -22z"/>
<path d="M8250 1502 c-77 -6 -130 -57 -130 -124 0 -41 15 -58 50 -58 40 0 67
26 85 83 10 28 23 62 31 74 16 26 11 30 -36 25z m-20 -44 c-1 -28 -40 -98 -55
-98 -25 0 -19 57 10 85 26 27 45 32 45 13z"/>
<path d="M5944 1493 c-12 -2 -32 -15 -45 -29 -24 -26 -24 -26 -27 -311 l-3
-286 26 -39 c51 -76 59 -78 485 -78 424 0 424 0 467 76 20 37 22 54 25 314 3
253 2 278 -15 304 -36 55 -50 56 -489 55 -222 -1 -413 -4 -424 -6z m814 -52
c10 -6 11 -18 3 -52 -6 -24 -11 -120 -13 -214 -1 -140 -3 -154 -7 -80 l-6 90
-8 -62 c-8 -52 -12 -63 -28 -63 -10 0 -19 7 -19 15 0 8 -7 15 -16 15 -8 0 -22
-7 -30 -15 -9 -8 -26 -15 -40 -15 -13 0 -24 -4 -24 -9 0 -7 -28 -8 -70 -2 -24
4 29 22 84 30 44 5 49 9 52 33 2 24 -5 32 -54 63 -31 20 -91 46 -132 60 -143
46 -215 73 -212 82 5 12 -36 21 -105 22 l-62 1 0 -206 c-1 -113 -4 -210 -7
-216 -4 -6 2 -8 17 -3 19 5 21 4 9 -4 -8 -6 -47 -11 -86 -11 l-71 0 -6 107
c-9 135 -9 249 0 347 5 66 9 79 27 86 27 11 787 12 804 1z m-480 -172 c75 -28
167 -62 203 -75 36 -14 75 -31 85 -39 17 -12 17 -15 4 -28 -8 -8 -68 -31 -133
-51 -64 -20 -159 -53 -209 -72 -50 -19 -97 -33 -103 -30 -13 5 -31 318 -20
336 10 17 31 12 173 -41z m242 -236 c24 -11 40 -25 40 -34 0 -14 -10 -17 -60
-16 -56 2 -76 10 -47 20 6 2 9 7 6 11 -3 3 -19 -1 -36 -9 -31 -16 -91 -7 -64
9 6 4 19 2 28 -6 14 -11 16 -11 10 4 -4 12 -2 15 9 11 7 -3 14 0 14 5 0 10 19
18 47 21 7 0 31 -7 53 -16z m103 10 c-7 -2 -19 -2 -25 0 -7 3 -2 5 12 5 14 0
19 -2 13 -5z m-260 -54 c30 -1 -44 -21 -88 -24 l-50 -2 50 17 c28 10 56 17 63
14 8 -2 19 -4 25 -5z m277 -169 c25 -7 -30 -8 -185 -4 -131 3 -250 0 -295 -6
-70 -10 -160 -5 -160 9 0 11 602 12 640 1z"/>
<path d="M5970 920 c0 -5 5 -10 11 -10 5 0 7 5 4 10 -3 6 -8 10 -11 10 -2 0
-4 -4 -4 -10z"/>
<path d="M6310 980 c-8 -5 -10 -10 -5 -10 6 0 17 5 25 10 8 5 11 10 5 10 -5 0
-17 -5 -25 -10z"/>
<path d="M4820 1403 c0 -22 128 -85 174 -87 46 -2 48 30 3 38 -19 4 -54 20
-78 36 -50 34 -99 40 -99 13z"/>
<path d="M3364 1375 c-31 -31 -24 -45 26 -45 41 0 55 17 45 51 -9 27 -41 24
-71 -6z"/>
<path d="M5130 1376 c0 -30 27 -48 59 -39 17 4 21 12 19 32 -3 22 -8 26 -40
29 -35 3 -38 1 -38 -22z"/>
<path d="M5564 1337 c-8 -21 2 -35 16 -21 5 5 6 15 0 24 -8 12 -10 12 -16 -3z"/>
<path d="M4467 1334 c-14 -14 -6 -24 19 -24 16 0 24 5 22 13 -5 14 -31 21 -41
11z"/>
<path d="M4820 1303 c-4 -62 -4 -173 0 -173 3 0 14 7 24 15 18 13 23 64 17
153 -1 13 -41 17 -41 5z"/>
<path d="M5002 1243 c-7 -12 -12 -28 -12 -36 0 -18 44 -59 54 -50 4 4 4 0 1
-9 -4 -9 -2 -19 4 -23 6 -3 11 0 11 7 1 19 40 -34 40 -54 0 -25 -39 -48 -84
-48 -26 0 -60 12 -103 36 -46 25 -72 34 -89 30 -23 -6 -54 -51 -54 -80 0 -13
-11 -14 -62 -10 -68 6 -118 -7 -118 -30 0 -15 29 -36 49 -36 5 0 13 9 16 20 8
25 26 25 73 1 43 -22 132 -113 132 -135 0 -22 17 -28 40 -16 20 11 21 13 5 38
-9 15 -29 37 -44 49 -22 20 -21 26 5 22 4 0 10 5 15 12 5 9 35 15 82 17 71 4
74 3 92 -24 10 -16 21 -56 24 -89 5 -51 9 -60 26 -60 15 0 21 8 23 33 l3 32
32 -22 c44 -31 130 -32 173 -1 39 28 101 170 83 187 -8 7 -13 8 -16 1 -24 -58
-63 -122 -84 -137 -42 -31 -98 -34 -139 -6 -73 49 -87 134 -28 167 36 20 42
12 28 -40 -10 -37 -9 -45 8 -68 41 -56 134 -28 148 45 5 27 1 43 -20 74 -28
42 -32 44 -111 41 -47 -2 -51 0 -63 27 -7 17 -39 59 -71 93 -56 61 -58 63 -69
42z m-128 -209 c25 -24 19 -34 -19 -34 -27 0 -35 4 -35 18 0 35 28 43 54 16z
m406 -29 c12 -31 3 -55 -20 -55 -20 0 -31 29 -23 60 7 28 32 25 43 -5z"/>
<path d="M3415 1232 c-81 -34 -83 -52 -4 -52 53 0 69 15 53 50 -9 17 -11 17
-49 2z"/>
<path d="M4507 1214 c-14 -14 -7 -43 12 -54 30 -15 53 -2 49 29 -2 19 -9 27
-28 29 -14 2 -29 0 -33 -4z"/>
<path d="M5417 1134 c-12 -13 -8 -42 8 -48 25 -9 46 5 43 28 -3 21 -37 34 -51
20z"/>
<path d="M3350 1101 c0 -30 14 -41 51 -41 35 0 39 3 39 25 0 23 -4 25 -45 25
-25 0 -45 -4 -45 -9z"/>
<path d="M3040 1025 c0 -33 -2 -35 -36 -35 -28 0 -35 -3 -32 -17 2 -11 15 -20
33 -23 25 -4 31 -10 33 -38 5 -45 32 -43 32 2 0 32 3 35 33 38 20 2 32 8 32
18 0 10 -12 16 -32 18 -30 3 -33 6 -33 38 0 24 -5 34 -15 34 -10 0 -15 -11
-15 -35z"/>
<path d="M4374 875 c-10 -25 4 -45 30 -45 30 0 51 31 34 48 -17 17 -58 15 -64
-3z"/>
<path d="M5502 867 c-33 -35 -29 -79 9 -111 37 -31 67 -33 103 -5 33 26 37 88
6 119 -29 29 -90 27 -118 -3z m86 -50 c4 -33 -22 -47 -45 -24 -22 21 -8 59 20
55 16 -2 23 -11 25 -31z"/>
<path d="M4568 713 c7 -3 16 -2 19 1 4 3 -2 6 -13 5 -11 0 -14 -3 -6 -6z"/>
<path d="M4657 623 c-14 -13 -7 -43 12 -53 25 -13 51 11 44 40 -5 19 -42 28
-56 13z"/>
<path d="M4934 616 c-11 -29 0 -51 26 -51 21 0 25 5 25 30 0 24 -5 31 -23 33
-13 2 -24 -3 -28 -12z"/>
<path d="M5230 601 c0 -17 6 -31 16 -35 23 -9 34 2 34 35 0 24 -4 29 -25 29
-21 0 -25 -5 -25 -29z"/>
</g>
</svg>
